<?xml version="1.0" encoding="UTF-8"?>
<svg width="186px" height="158px" viewBox="0 0 186 158" version="1.1" xmlns="http://www.w3.org/2000/svg" xmlns:xlink="http://www.w3.org/1999/xlink">
    <!-- Generator: Sketch 48.2 (47327) - http://www.bohemiancoding.com/sketch -->
    <title>Character FriendThem</title>
    <desc>Created with Sketch.</desc>
    <defs>
        <linearGradient x1="-3.03315521%" y1="50.0001892%" x2="106.565745%" y2="50.0001892%" id="linearGradient-1">
            <stop stop-color="#01E2C5" offset="9.52%"></stop>
            <stop stop-color="#21B4C3" offset="16.89%"></stop>
            <stop stop-color="#4A79C0" offset="27.31%"></stop>
            <stop stop-color="#6A4ABE" offset="36.91%"></stop>
            <stop stop-color="#8229BC" offset="45.37%"></stop>
            <stop stop-color="#9014BB" offset="52.36%"></stop>
            <stop stop-color="#950DBB" offset="57.04%"></stop>
            <stop stop-color="#A514A1" offset="62.13%"></stop>
            <stop stop-color="#D42A57" offset="77.83%"></stop>
            <stop stop-color="#F13829" offset="89.07%"></stop>
            <stop stop-color="#FC3D17" offset="94.69%"></stop>
        </linearGradient>
        <linearGradient x1="-109.847324%" y1="-114.3314%" x2="176.372251%" y2="198.043397%" id="linearGradient-2">
            <stop stop-color="#01E2C5" offset="0%"></stop>
            <stop stop-color="#950DBB" offset="54.9325004%"></stop>
            <stop stop-color="#FC3D17" offset="100%"></stop>
        </linearGradient>
        <linearGradient x1="-145.946371%" y1="49.9994276%" x2="546.694154%" y2="49.9994276%" id="linearGradient-3">
            <stop stop-color="#01E2C5" offset="9.52%"></stop>
            <stop stop-color="#21B4C3" offset="16.89%"></stop>
            <stop stop-color="#4A79C0" offset="27.31%"></stop>
            <stop stop-color="#6A4ABE" offset="36.91%"></stop>
            <stop stop-color="#8229BC" offset="45.37%"></stop>
            <stop stop-color="#9014BB" offset="52.36%"></stop>
            <stop stop-color="#950DBB" offset="57.04%"></stop>
            <stop stop-color="#A514A1" offset="62.13%"></stop>
            <stop stop-color="#D42A57" offset="77.83%"></stop>
            <stop stop-color="#F13829" offset="89.07%"></stop>
            <stop stop-color="#FC3D17" offset="94.69%"></stop>
        </linearGradient>
        <linearGradient x1="-431.88324%" y1="49.9999023%" x2="260.763267%" y2="49.9999023%" id="linearGradient-4">
            <stop stop-color="#01E2C5" offset="9.52%"></stop>
            <stop stop-color="#21B4C3" offset="16.89%"></stop>
            <stop stop-color="#4A79C0" offset="27.31%"></stop>
            <stop stop-color="#6A4ABE" offset="36.91%"></stop>
            <stop stop-color="#8229BC" offset="45.37%"></stop>
            <stop stop-color="#9014BB" offset="52.36%"></stop>
            <stop stop-color="#950DBB" offset="57.04%"></stop>
            <stop stop-color="#A514A1" offset="62.13%"></stop>
            <stop stop-color="#D42A57" offset="77.83%"></stop>
            <stop stop-color="#F13829" offset="89.07%"></stop>
            <stop stop-color="#FC3D17" offset="94.69%"></stop>
        </linearGradient>
        <linearGradient x1="-3.4102378%" y1="49.9999149%" x2="107.034655%" y2="49.9999149%" id="linearGradient-5">
            <stop stop-color="#01E2C5" offset="9.52%"></stop>
            <stop stop-color="#21B4C3" offset="16.89%"></stop>
            <stop stop-color="#4A79C0" offset="27.31%"></stop>
            <stop stop-color="#6A4ABE" offset="36.91%"></stop>
            <stop stop-color="#8229BC" offset="45.37%"></stop>
            <stop stop-color="#9014BB" offset="52.36%"></stop>
            <stop stop-color="#950DBB" offset="57.04%"></stop>
            <stop stop-color="#A514A1" offset="62.13%"></stop>
            <stop stop-color="#D42A57" offset="77.83%"></stop>
            <stop stop-color="#F13829" offset="89.07%"></stop>
            <stop stop-color="#FC3D17" offset="94.69%"></stop>
        </linearGradient>
        <linearGradient x1="-31.2875008%" y1="49.9998056%" x2="168.295714%" y2="49.9998056%" id="linearGradient-6">
            <stop stop-color="#01E2C5" offset="9.52%"></stop>
            <stop stop-color="#21B4C3" offset="16.89%"></stop>
            <stop stop-color="#4A79C0" offset="27.31%"></stop>
            <stop stop-color="#6A4ABE" offset="36.91%"></stop>
            <stop stop-color="#8229BC" offset="45.37%"></stop>
            <stop stop-color="#9014BB" offset="52.36%"></stop>
            <stop stop-color="#950DBB" offset="57.04%"></stop>
            <stop stop-color="#A514A1" offset="62.13%"></stop>
            <stop stop-color="#D42A57" offset="77.83%"></stop>
            <stop stop-color="#F13829" offset="89.07%"></stop>
            <stop stop-color="#FC3D17" offset="94.69%"></stop>
        </linearGradient>
        <linearGradient x1="-72.2503734%" y1="50.0000648%" x2="154.493989%" y2="50.0000648%" id="linearGradient-7">
            <stop stop-color="#01E2C5" offset="9.52%"></stop>
            <stop stop-color="#21B4C3" offset="16.89%"></stop>
            <stop stop-color="#4A79C0" offset="27.31%"></stop>
            <stop stop-color="#6A4ABE" offset="36.91%"></stop>
            <stop stop-color="#8229BC" offset="45.37%"></stop>
            <stop stop-color="#9014BB" offset="52.36%"></stop>
            <stop stop-color="#950DBB" offset="57.04%"></stop>
            <stop stop-color="#A514A1" offset="62.13%"></stop>
            <stop stop-color="#D42A57" offset="77.83%"></stop>
            <stop stop-color="#F13829" offset="89.07%"></stop>
            <stop stop-color="#FC3D17" offset="94.69%"></stop>
        </linearGradient>
        <linearGradient x1="-33.6954493%" y1="-110.044654%" x2="133.359545%" y2="231.523318%" id="linearGradient-8">
            <stop stop-color="#01E2C5" offset="0%"></stop>
            <stop stop-color="#950DBB" offset="60.4183399%"></stop>
            <stop stop-color="#FC3D17" offset="100%"></stop>
        </linearGradient>
        <linearGradient x1="5.76766304%" y1="0%" x2="86.8953804%" y2="92.5898204%" id="linearGradient-9">
            <stop stop-color="#01E2C5" offset="0%"></stop>
            <stop stop-color="#950DBB" offset="60.4183399%"></stop>
            <stop stop-color="#FC3D17" offset="100%"></stop>
        </linearGradient>
    </defs>
    <g id="Blank-slate-(People-Nearby)" stroke="none" stroke-width="1" fill="none" fill-rule="evenodd" transform="translate(-100.000000, -160.000000)">
        <g id="Blank-Slate" transform="translate(21.000000, 160.000000)">
            <g id="Character-FriendThem" transform="translate(79.000000, 0.000000)">
                <g id="Group">
                    <path d="M151.46622,68.633766 L150.038388,68.633766 L141.618942,68.633766 L139.183361,68.633766 C139.188157,68.8082147 139.20057,68.9804089 139.20057,69.1557031 C139.20057,82.644058 124.785413,92.5340903 107.066294,92.5340903 C99.6040975,92.5340903 92.5966861,90.6252997 86.7995894,87.0126042 L78.7469064,94.3715796 C78.9051783,94.4702178 81.3715117,96.4080362 81.5303479,96.5044199 C88.9541752,101.002041 97.7708517,103.376404 107.066294,103.376404 C120.674575,103.376404 132.817783,98.5067759 140.700345,90.6813826 C134.193987,120.383889 107.657909,142.687965 75.9995768,142.687965 C65.8792024,142.687965 56.1653696,140.467478 47.1275073,136.086531 L45.0519165,135.080985 L29.2114654,142.352877 L30.2510946,124.410584 L28.7358033,122.867882 C19.2592373,113.224163 13.0846578,101.17339 10.782803,88.1252434 C13.200611,90.8845773 16.1375283,93.3722334 19.4855012,95.5845479 L26.5050439,87.2718818 C19.0470795,82.7883516 14.246447,76.9351592 14.246447,69.1554213 C14.246447,68.9801271 14.2588605,68.8079329 14.2636566,68.6334842 L10.3810576,68.6334842 L3.4089118,68.6334842 L0.534061908,68.6334842 C0.185638001,71.5791035 0,73.4898668 0,76.5276424 C0,95.8043703 7.17583974,114.040042 20.2511874,128.119381 L18.5203529,158 L44.980539,145.852561 C54.7519252,150.228435 65.1758657,152.446386 76.0001411,152.446386 C117.90665,152.446386 152,118.388297 152,76.5273606 C151.999718,73.4901487 151.814926,71.5793853 151.46622,68.633766 Z" id="Shape" fill="url(#linearGradient-1)" fill-rule="nonzero"></path>
                    <path d="M90.5399244,118.263827 C103.671671,118.263827 113.636861,128.447959 114.282365,123.86269 C114.927868,119.277421 103.047341,109.936705 89.9155947,109.936705 C76.7838482,109.936705 66.2026071,119.843969 66.7281038,123.86269 C67.2536004,127.88141 77.4081778,118.263827 90.5399244,118.263827 Z" id="Mask" fill="url(#linearGradient-2)" transform="translate(90.508426, 117.492907) rotate(-8.000000) translate(-90.508426, -117.492907) "></path>
                    <path d="M41.2902682,58.7069992 C34.1000177,59.3167898 31.0917684,64.5873641 30.5354252,67.5486807 C30.4695758,67.9000711 30.4358068,68.2201829 30.4358068,68.4937997 C30.4366511,70.7892498 31.3852767,77.111741 42.8377297,78.4071233 C42.8377297,78.4071233 47.4021641,79.1310382 51.7057334,78.0399527 C52.0358248,77.9556979 54.168333,77.610225 54.426384,77.3873302 L45.8341598,68.9164826 L47.074324,67.5489624 L52.2919059,61.8007564 C52.2916245,61.8004746 49.3312145,58.0242254 41.2902682,58.7069992 Z" id="Shape" fill="url(#linearGradient-3)" fill-rule="nonzero"></path>
                    <path d="M112.321321,77.4877573 C120.362267,76.8052548 123.176063,70.2913298 123.175501,67.6999622 C123.175501,67.6560025 123.174375,67.6072523 123.173531,67.5604747 C123.133852,65.161008 122.006814,59.057937 110.774141,57.7867692 C110.774141,57.7867692 106.209425,57.0639704 101.906137,58.1550725 C101.575483,58.2384832 99.4432558,58.5839614 99.1849234,58.8077049 L107.77771,67.2786817 L107.521066,67.5604747 L101.319683,74.3936711 C101.319402,74.3936711 104.280374,78.1696961 112.321321,77.4877573 Z" id="Shape" fill="url(#linearGradient-4)" fill-rule="nonzero"></path>
                    <path d="M10.3904725,66.1312217 L14.3199643,66.1312217 C15.1832104,53.239618 29.2362248,43.491182 46.4113785,43.491182 C53.8779775,43.491182 60.8895232,45.3977442 66.6900403,49.0053777 L75.2448714,41.6268439 C74.9930677,41.4706144 71.9330325,39.5069088 71.6778413,39.3554647 C64.3103265,34.9734398 55.5940249,32.6615255 46.4113785,32.6615255 C36.5148179,32.6615255 27.3993568,35.324745 20.1281032,39.8362574 C31.9016171,21.6306005 52.5661708,9.7473101 76.0479895,9.7473101 C98.8221044,9.7473101 118.944377,21.0093421 130.875974,38.3488404 C128.945667,37.3430606 126.910349,36.4487525 124.778487,35.6813985 L116.619428,44.5287707 C129.222313,47.3589164 138.527191,55.1782707 139.224168,65.5907523 L150.094633,65.5907523 L150.094633,65.5899078 L151.462898,65.5899078 C146.671006,28.3419924 114.683193,0 76.0477072,0 C37.1595707,0 5.00068898,28.5300307 0.537102473,66.1312217 L3.44949951,66.1312217 L10.3904725,66.1312217 Z" id="Shape" fill="url(#linearGradient-5)" fill-rule="nonzero"></path>
                    <path d="M104.800092,67.524826 C104.836469,67.4873903 104.877922,67.4462955 104.914016,67.4097043 L97.1217536,59.8755656 C95.2558178,61.7980137 92.3377728,64.5350393 89.0491914,67.524826 C84.8308849,71.3601521 80.0031955,75.6128999 76.0045603,79.0994833 L66.4247551,69.4810506 L58.7306251,77.115393 L67.775211,86.1970602 C61.8624194,90.2494005 54.2709342,92.4786522 46.3475454,92.4786522 C39.7796882,92.4786522 33.6686569,90.9688408 28.5756137,88.385217 L21.4840989,96.7772798 C28.5079358,100.882818 37.0869542,103.307692 46.3478274,103.307692 C46.3483913,103.307692 46.3483913,103.307692 46.3486733,103.307692 C56.6269707,103.307692 66.5649047,100.299328 74.3323524,94.8379435 L74.7370098,94.5235402 C75.6585571,93.7359839 97.2841805,75.2331953 104.800092,67.524826 Z" id="Shape" fill="url(#linearGradient-6)" fill-rule="nonzero"></path>
                    <path d="M113.288571,44.0039373 L121.743227,34.8231328 C117.109867,33.4565815 112.105004,32.7081448 106.880001,32.7081448 C106.879719,32.7081448 106.879719,32.7081448 106.879155,32.7081448 C96.6053174,32.7081448 86.6716953,35.7156837 78.9076178,41.1779485 L78.5028541,41.4923539 C77.6214502,42.24642 57.7697088,59.2380999 49.4886838,67.4478226 C49.0791284,67.8537067 48.6881763,68.2457986 48.3392226,68.606084 L56.1281046,76.1402715 C58.2071693,73.9962917 61.5960785,70.8390092 65.3471892,67.4478226 C69.2736223,63.8976038 73.5977724,60.0904002 77.2361355,56.9162293 L86.8117842,66.5347243 L94.5025758,58.9003324 L85.4619142,49.8186064 C91.3721403,45.7662397 98.9603317,43.5369736 106.880283,43.5369736 C109.074632,43.5372551 111.216835,43.6991021 113.288571,44.0039373 Z" id="Shape" fill="url(#linearGradient-7)" fill-rule="nonzero"></path>
                </g>
                <path d="M65.2404597,17.378703 C66.3585343,17.0105044 67.5752045,17.5839078 67.9579688,18.6594354 C68.3407331,19.734963 67.7446463,20.9053343 66.6265717,21.2735329 L46.8334368,27.7917074 C45.7153622,28.159906 44.4986919,27.5865026 44.1159277,26.510975 C43.7331634,25.4354475 44.3292502,24.2650761 45.4473247,23.8968775 L65.2404597,17.378703 Z M103.49612,24.0634677 C104.60386,24.4616787 105.209587,25.6625838 104.849048,26.7457643 C104.48851,27.8289448 103.298235,28.3842223 102.190494,27.9860114 L82.580302,20.9365323 C81.4725615,20.5383213 80.8668346,19.3374162 81.2273731,18.2542357 C81.5879117,17.1710552 82.778187,16.6157777 83.8859275,17.0139886 L103.49612,24.0634677 Z" id="Combined-Shape" fill="url(#linearGradient-8)" fill-rule="nonzero"></path>
                <g id="question" transform="translate(142.000000, 1.000000)" fill="url(#linearGradient-9)" fill-rule="nonzero">
                    <path d="M29.2373317,42.7118644 L17.8691346,42.7118644 C17.8691346,31.5485362 23.9321731,27.8274268 28.100512,25.5947612 C29.6162717,24.8505393 30.7530914,24.1063174 31.5109712,23.3620955 C33.4056707,21.5015408 32.6477909,18.8967643 32.268851,18.1525424 C31.1320313,15.5477658 28.4794519,12.9429892 23.5532332,12.9429892 C15.5954952,12.9429892 14.0797356,20.0130971 14.0797356,21.5015408 L2.71153846,20.0130971 C3.46941827,13.6872111 9.15351683,1.77966102 23.5532332,1.77966102 C32.268851,1.77966102 39.8476491,6.61710324 42.8791683,13.6872111 C45.5317476,20.0130971 44.3949279,26.711094 39.8476491,31.1764253 C37.9529495,33.03698 35.6793101,34.1533128 33.7846106,35.2696456 C30.3741515,37.1302003 29.2373317,38.990755 29.2373317,42.7118644 Z M31.0923077,53.7457627 C31.0923077,57.8754661 27.69475,61.220339 23.5,61.220339 C19.30525,61.220339 15.9076923,57.8754661 15.9076923,53.7457627 C15.9076923,49.6160593 19.30525,46.2711864 23.5,46.2711864 C27.69475,46.2711864 31.0923077,49.6160593 31.0923077,53.7457627 Z" id="Combined-Shape" transform="translate(23.500000, 31.500000) rotate(-5.000000) translate(-23.500000, -31.500000) "></path>
                </g>
            </g>
        </g>
    </g>
</svg>