<?xml version="1.0" encoding="UTF-8"?>
<svg width="37px" height="57px" viewBox="0 0 37 57" version="1.1" xmlns="http://www.w3.org/2000/svg" xmlns:xlink="http://www.w3.org/1999/xlink">
    <!-- Generator: Sketch 48.2 (47327) - http://www.bohemiancoding.com/sketch -->
    <title>closed-lock</title>
    <desc>Created with Sketch.</desc>
    <defs></defs>
    <g id="Change-password" stroke="none" stroke-width="1" fill="none" fill-rule="evenodd" transform="translate(-169.000000, -153.000000)">
        <g id="Pop-up" fill="#FFFFFF" fill-rule="nonzero">
            <g id="Group" transform="translate(38.000000, 140.000000)">
                <g id="COntainer">
                    <g id="closed-lock" transform="translate(131.000000, 13.000000)">
                        <path d="M31.1694775,23.4369379 L31.1694775,11.360264 C31.1694775,5.09621129 26.4009929,0 20.5399146,0 L16.4602621,0 C10.5990071,0 5.83052247,5.09621129 5.83052247,11.360264 L5.83052247,23.4367618 C2.2436499,26.9119395 0,31.8405366 0,37.2989143 C0.000176623625,47.7987469 8.29919087,56.3409091 18.5000883,56.3409091 C28.7009858,56.3409091 37,47.7987469 37,37.2990903 C37,31.8407126 34.7565267,26.9121156 31.1694775,23.4369379 Z M9.36317159,20.7412014 L9.36317159,11.3604401 C9.36317159,7.03785987 12.5468124,3.52148288 16.4604387,3.52148288 L20.5400912,3.52148288 C24.4535408,3.52148288 27.6373583,7.03803594 27.6373583,11.3604401 L27.6373583,20.7412014 C27.1551758,20.4593208 26.6609829,20.2019133 26.1572523,19.9661618 C26.1392367,19.9577107 26.1213977,19.9487313 26.1033821,19.9402802 C26.0329093,19.907532 25.9619066,19.8763685 25.8910805,19.8445006 C25.7858128,19.7971391 25.6800153,19.7504817 25.5738645,19.7050569 C25.5240566,19.683929 25.4744254,19.6628012 25.4244409,19.6420255 C25.2670692,19.5763531 25.1088145,19.5127935 24.9495,19.4515228 C24.9459675,19.4501143 24.942435,19.4487058 24.9390792,19.4474733 C23.3086665,18.8224413 21.5703368,18.428231 19.7615342,18.3023443 C19.7196744,18.2993512 19.6778146,18.2967102 19.6359548,18.2940692 C19.4911235,18.2849138 19.3457622,18.2776952 19.2000477,18.2720611 C19.1521827,18.2701244 19.1043177,18.2678355 19.0562761,18.266427 C18.8715278,18.2607929 18.6864262,18.2570955 18.5004416,18.2570955 C18.3144569,18.2570955 18.1293553,18.2607929 17.944607,18.266427 C17.8965654,18.2678355 17.8487004,18.2701244 17.8008354,18.2720611 C17.6551209,18.2776952 17.5097596,18.2849138 17.3649283,18.2940692 C17.3230685,18.2967102 17.2812087,18.2993512 17.2393489,18.3023443 C15.4305463,18.428231 13.6922166,18.8224413 12.0618039,19.4474733 C12.0582715,19.4488818 12.054739,19.4502903 12.0513832,19.4515228 C11.891892,19.5127935 11.7336373,19.5763531 11.5764422,19.6420255 C11.5264577,19.6628012 11.4768265,19.683753 11.4270186,19.7050569 C11.3206912,19.7504817 11.2150703,19.7971391 11.1098026,19.8445006 C11.0389765,19.8761924 10.9679738,19.907532 10.897501,19.9402802 C10.8794854,19.9487313 10.8616464,19.9577107 10.8436308,19.9661618 C10.339547,20.2017372 9.84517746,20.4593208 9.36317159,20.7412014 Z M18.5000883,52.8196023 C10.2469962,52.8196023 3.53264912,45.8570984 3.53264912,37.2990903 C3.53264912,31.4972092 6.61932358,26.4295205 11.1786858,23.7665322 C11.2496885,23.7253329 11.320338,23.6834293 11.3918705,23.6434625 C11.4699382,23.5996222 11.5487123,23.5568384 11.6276631,23.5142305 C11.766136,23.439931 11.9053154,23.3670399 12.0459078,23.297318 C12.090417,23.2751338 12.135456,23.2538299 12.1803184,23.2321739 C13.7400816,22.4787903 15.4199489,22.0053506 17.1467981,21.8426662 C17.1618111,21.8412577 17.1770007,21.8398491 17.1921904,21.8384406 C17.3967205,21.8197777 17.6019572,21.8055164 17.8075471,21.7956567 C17.8313913,21.7946004 17.8555887,21.7938961 17.8794329,21.7928397 C18.0859059,21.7838604 18.2929088,21.7784023 18.5002649,21.7784023 C18.7076211,21.7784023 18.914624,21.7838604 19.121097,21.7928397 C19.1451178,21.7938961 19.1691386,21.7946004 19.1929828,21.7956567 C19.3987493,21.8055164 19.6038093,21.8197777 19.8083395,21.8384406 C19.8235291,21.8398491 19.8385421,21.8412577 19.8537318,21.8426662 C21.5805809,22.0053506 23.2604482,22.4787903 24.8202115,23.2321739 C24.8650739,23.2538299 24.9101129,23.2751338 24.954622,23.297318 C25.0952145,23.3670399 25.2342172,23.439931 25.3728668,23.5142305 C25.4518176,23.5566623 25.5305917,23.5994462 25.6086593,23.6434625 C25.6801919,23.6834293 25.751018,23.7253329 25.821844,23.7665322 C30.3812063,26.4295205 33.4678808,31.4972092 33.4678808,37.2990903 C33.4675275,45.8570984 26.7531804,52.8196023 18.5000883,52.8196023 Z" id="Shape"></path>
                        <path d="M23.5454545,34.6342853 C23.5454545,31.7657275 21.2821482,29.4318182 18.499829,29.4318182 C15.7178518,29.4318182 13.4545455,31.7655512 13.4545455,34.6342853 C13.4545455,36.1005585 14.0448691,37.4652961 15.0522841,38.4342915 L13.8423943,44.0273887 C13.8152038,44.1534269 13.8015231,44.2819329 13.8015231,44.4111441 C13.8015231,45.938938 15.2530489,47.0909091 17.1779281,47.0909091 L19.8229269,47.0909091 C21.7474641,47.0909091 23.1986479,45.938938 23.1986479,44.4111441 C23.1986479,44.2821092 23.1849672,44.1534269 23.1576057,44.0273887 L21.9475449,38.4342915 C22.9549599,37.4651198 23.5454545,36.1005585 23.5454545,34.6342853 Z M17.4465835,43.5651901 L18.499829,38.6960631 L19.5534165,43.5651901 L17.4465835,43.5651901 Z M19.2456,36.1240034 C18.9131582,36.3020433 18.6568154,36.5807374 18.499829,36.909318 C18.3428426,36.5807374 18.0864998,36.3020433 17.754058,36.1240034 C17.2117879,35.8336749 16.8747289,35.2627133 16.8747289,34.6342853 C16.8747289,33.7097117 17.6037409,32.9573609 18.499829,32.9573609 C19.396088,32.9573609 20.1252711,33.7097117 20.1252711,34.6342853 C20.1252711,35.262537 19.7882121,35.8333224 19.2456,36.1240034 Z" id="Shape"></path>
                    </g>
                </g>
            </g>
        </g>
    </g>
</svg>