<?xml version="1.0" encoding="utf-8"?>
<!-- Generator: Adobe Illustrator 16.0.0, SVG Export Plug-In . SVG Version: 6.00 Build 0)  -->
<!DOCTYPE svg PUBLIC "-//W3C//DTD SVG 1.1//EN" "http://www.w3.org/Graphics/SVG/1.1/DTD/svg11.dtd">
<svg version="1.1" id="Layer_2" xmlns="http://www.w3.org/2000/svg" xmlns:xlink="http://www.w3.org/1999/xlink" x="0px" y="0px"
	 width="170.08px" height="184.667px" viewBox="0 0 170.08 184.667" enable-background="new 0 0 170.08 184.667"
	 xml:space="preserve">
<g>
	<linearGradient id="SVGID_1_" gradientUnits="userSpaceOnUse" x1="40.6221" y1="20.9126" x2="143.6221" y2="142.2461">
		<stop  offset="0" style="stop-color:#FC3D17"/>
		<stop  offset="0.4992" style="stop-color:#950DBB"/>
		<stop  offset="1" style="stop-color:#01E2C5"/>
	</linearGradient>
	<path fill="url(#SVGID_1_)" d="M38,41.75C38,41.75,54.297,23,84.507,23S141,48,146,65.5c0,0-12-9.667-32.167,1.5
		C106.835,70.875,89.5,81.5,89.5,81.5l7.25,4l21.517-12c0,0,24.733-11.5,32.233,13h7.25c0-45.5-36.917-71.5-73.231-71.5
		C49.685,15,13.5,39.5,11.25,85.5h7.5C18.75,85.5,18.5,61.25,38,41.75z"/>
	<linearGradient id="SVGID_2_" gradientUnits="userSpaceOnUse" x1="18.3496" y1="39.8198" x2="121.3496" y2="161.1533">
		<stop  offset="0" style="stop-color:#FC3D17"/>
		<stop  offset="0.4992" style="stop-color:#950DBB"/>
		<stop  offset="1" style="stop-color:#01E2C5"/>
	</linearGradient>
	<path fill="url(#SVGID_2_)" d="M131,135.75c0,0-16.297,18.75-46.507,18.75c-6.282,0-12.389-1.093-18.176-2.963L54.5,147.334
		L37.167,151.5l3.5-13.333l-6.346-7.529C28.643,124.388,24.653,117.785,23,112c0,0,12,9.666,32.167-1.5
		C62.165,106.625,79.5,96,79.5,96l-7.25-4l-21.517,12c0,0-24.733,11.5-32.233-13h-7.25c0,21.443,8.203,38.55,20.675,50.651
		L27.389,162.5l24.917-7.018c10.083,4.608,21.153,7.018,32.174,7.018c34.834,0,71.019-24.5,73.269-70.5h-7.5
		C150.25,92,150.5,116.25,131,135.75z"/>
	<linearGradient id="SVGID_3_" gradientUnits="userSpaceOnUse" x1="32.6543" y1="27.6763" x2="135.6543" y2="149.0098">
		<stop  offset="0" style="stop-color:#FC3D17"/>
		<stop  offset="0.4992" style="stop-color:#950DBB"/>
		<stop  offset="1" style="stop-color:#01E2C5"/>
	</linearGradient>
	<path fill="url(#SVGID_3_)" d="M141,114.5l3.75-11.75c-10.375,10.75-27.5,0.5-27.5,0.5S68.656,73.042,51.625,64.5
		c-19.438-9.75-24.75,1.125-24.75,1.125L24.25,74.75c12.375-9.75,24.5-1.25,24.5-1.25l61.25,35C128.5,120.625,141,114.5,141,114.5z"
		/>
	<linearGradient id="SVGID_4_" gradientUnits="userSpaceOnUse" x1="15.6079" y1="42.1475" x2="118.6079" y2="163.481">
		<stop  offset="0" style="stop-color:#FC3D17"/>
		<stop  offset="0.4992" style="stop-color:#950DBB"/>
		<stop  offset="1" style="stop-color:#01E2C5"/>
	</linearGradient>
	<path fill="url(#SVGID_4_)" d="M46.875,89.152c0,6.473,3.519,10.14,3.519,10.14C53,99.324,68.917,88.77,68.917,88.77
		s-14.792-9.757-18.104-9.757C50.812,79.013,46.875,80.688,46.875,89.152z"/>
	<linearGradient id="SVGID_5_" gradientUnits="userSpaceOnUse" x1="49.5981" y1="13.293" x2="152.5982" y2="134.6265">
		<stop  offset="0" style="stop-color:#FC3D17"/>
		<stop  offset="0.4992" style="stop-color:#950DBB"/>
		<stop  offset="1" style="stop-color:#01E2C5"/>
	</linearGradient>
	<path fill="url(#SVGID_5_)" d="M122.369,88.842c0-6.473-3.52-10.14-3.52-10.14c-2.605-0.032-18.523,10.522-18.523,10.522
		s14.793,9.757,18.105,9.757C118.432,98.981,122.369,97.307,122.369,88.842z"/>
	<linearGradient id="SVGID_6_" gradientUnits="userSpaceOnUse" x1="16.769" y1="41.1616" x2="119.7691" y2="162.4951">
		<stop  offset="0" style="stop-color:#FC3D17"/>
		<stop  offset="0.4992" style="stop-color:#950DBB"/>
		<stop  offset="1" style="stop-color:#01E2C5"/>
	</linearGradient>
	<path fill="url(#SVGID_6_)" d="M51.207,118.233c3.748,14.899,17.23,25.933,33.293,25.933c16.062,0,29.545-11.033,33.293-25.933
		c-9.224,4.448-20.762,7.099-33.292,7.099C71.969,125.332,60.43,122.682,51.207,118.233z"/>
</g>
</svg>
