<?xml version="1.0" encoding="UTF-8"?>
<svg width="290px" height="228px" viewBox="0 0 290 228" version="1.1" xmlns="http://www.w3.org/2000/svg" xmlns:xlink="http://www.w3.org/1999/xlink">
    <!-- Generator: Sketch 48.1 (47250) - http://www.bohemiancoding.com/sketch -->
    <title>location (1)</title>
    <desc>Created with Sketch.</desc>
    <defs></defs>
    <g id="Location" stroke="none" stroke-width="1" fill="none" fill-rule="evenodd" transform="translate(-43.000000, -161.000000)">
        <g id="Group" transform="translate(16.000000, 72.000000)">
            <g id="CTA">
                <g id="Text">
                    <g id="location-(1)" transform="translate(27.000000, 89.000000)">
                        <path d="M163.646493,186.918931 C176.213995,167.265122 174.634148,169.717107 174.996297,169.204687 C179.571833,162.772882 181.99016,155.202902 181.99016,147.312689 C181.99016,126.388289 164.952768,109.151292 143.929889,109.151292 C122.975519,109.151292 105.869619,126.354265 105.869619,147.312689 C105.869619,155.197845 108.338692,162.965988 113.064163,169.48446 L124.212824,186.919161 C112.293039,188.744701 92.0295203,194.184999 92.0295203,206.164 C92.0295203,210.530721 94.889346,216.753788 108.513539,221.603044 C118.026761,224.989063 130.604412,226.853914 143.929889,226.853914 C168.847833,226.853914 195.830258,219.848769 195.830258,206.164 C195.830258,194.18293 175.590498,188.74838 163.646493,186.918931 Z M118.84448,165.69108 C118.80642,165.631769 118.766745,165.573837 118.725225,165.516825 C114.793022,160.125493 112.789668,153.735987 112.789668,147.312689 C112.789668,130.066956 126.723418,116.04793 143.929889,116.04793 C161.100607,116.04793 175.070111,130.073163 175.070111,147.312689 C175.070111,153.746332 173.104586,159.919053 169.38506,165.168314 C169.051744,165.606481 170.790752,162.914033 143.929889,204.920076 L118.84448,165.69108 Z M143.929889,219.957276 C116.712413,219.957276 98.9495695,211.984073 98.9495695,206.164 C98.9495695,202.252227 108.076653,195.820192 128.30165,193.313035 L141.011935,213.189835 C141.647196,214.183411 142.747484,214.784798 143.929659,214.784798 C145.111834,214.784798 146.212352,214.183181 146.847382,213.189835 L159.557436,193.313035 C179.782895,195.820192 188.910209,202.252227 188.910209,206.164 C188.910209,211.934647 171.307219,219.957276 143.929889,219.957276 Z" id="Shape" fill="#FFFFFF" fill-rule="nonzero"></path>
                        <path d="M143.929889,107.546125 L143.929889,69.0072804" id="Line" stroke="#FFFFFF" stroke-width="2" style="mix-blend-mode: overlay;" stroke-linecap="square" stroke-dasharray="3,6"></path>
                        <path d="M170.147601,119.852399 L235.95941,48.6900369" id="Line-2" stroke="#FFFFFF" stroke-width="2" style="mix-blend-mode: overlay;" stroke-linecap="square" stroke-dasharray="3,6"></path>
                        <path d="M181.383764,142.859779 L252.083995,142.859779" id="Line-3" stroke="#FFFFFF" stroke-width="2" style="mix-blend-mode: overlay;" stroke-linecap="square" stroke-dasharray="3,6"></path>
                        <path d="M179.778598,168.00738 L248.045638,208.451542" id="Line-4" stroke="#FFFFFF" stroke-width="2" style="mix-blend-mode: overlay;" stroke-linecap="square" stroke-dasharray="3,6"></path>
                        <path d="M110.221402,164.797048 L61.5313653,193.154982" id="Line-5" stroke="#FFFFFF" stroke-width="2" style="mix-blend-mode: overlay;" stroke-linecap="square" stroke-dasharray="3,6"></path>
                        <path d="M109.151292,142.324723 L23.0073801,122.527675" id="Line-6" stroke="#FFFFFF" stroke-width="2" style="mix-blend-mode: overlay;" stroke-linecap="square" stroke-dasharray="3,6"></path>
                        <path d="M115.571956,125.202952 L47.6199262,41.199262" id="Line-7" stroke="#FFFFFF" stroke-width="2" style="mix-blend-mode: overlay;" stroke-linecap="square" stroke-dasharray="3,6"></path>
                        <path d="M143.466493,130.467514 C134.012378,130.467514 126.320836,138.159057 126.320836,147.613172 C126.320836,157.067288 134.012378,164.75883 143.466493,164.75883 C152.920609,164.75883 160.612151,157.067288 160.612151,147.613172 C160.612151,138.159057 152.920609,130.467514 143.466493,130.467514 Z M143.466493,157.900567 C137.794024,157.900567 133.179099,153.285641 133.179099,147.613172 C133.179099,141.940703 137.794024,137.325778 143.466493,137.325778 C149.138963,137.325778 153.753888,141.940703 153.753888,147.613172 C153.753888,153.285641 149.138963,157.900567 143.466493,157.900567 Z" id="Shape" fill="#FFFFFF" fill-rule="nonzero"></path>
                        <g id="Group-2">
                            <circle id="Oval" fill="#FFFFFF" cx="38.5239852" cy="23.5424354" r="23.5424354"></circle>
                            <path d="M42.9047509,31.2115621 C42.9047509,31.6371541 42.560688,31.9807042 42.1356089,31.9807042 C41.7105297,31.9807042 41.3664668,31.6371541 41.3664668,31.2115621 C41.3664668,30.7869957 41.7105297,30.44242 42.1356089,30.44242 C42.560688,30.44242 42.9047509,30.7869957 42.9047509,31.2115621 L42.9047509,31.2115621 Z M51.3653137,34.8008918 L51.3653137,35.3136531 L26.7527675,35.3136531 L26.7527675,34.8008918 C26.7527675,33.1333918 27.1604128,31.8099546 27.7798286,30.7864829 L26.9676145,28.3498409 L29.265811,29.1159064 C29.2827322,29.1030873 29.2996533,29.0907811 29.3165744,29.0784748 L29.3165744,25.8716651 L31.5291398,28.0837177 C31.6527153,28.0550031 31.7732142,28.0257757 31.900379,27.9975738 C32.1870126,26.9089814 34.4041928,25.7460386 35.4574047,25.2491728 C34.6139122,24.2821049 33.8745103,22.3484817 33.5724938,21.4998616 C32.9366697,21.3306504 32.6187577,20.3820418 32.4085255,19.5411132 C32.2803352,19.1514145 31.9983164,18.0643604 32.4444188,17.1413899 C32.6341405,16.7516913 33.0238392,16.4748001 33.5058349,16.3722478 C34.0339791,13.8699723 34.885163,10.701107 39.0590406,10.701107 C43.2329182,10.701107 44.0841021,13.8750999 44.6122463,16.3876307 C45.0937292,16.4850554 45.4839407,16.7568189 45.6736624,17.1413899 C46.1346348,18.1002537 45.8069803,19.2539668 45.6993004,19.5821341 C45.4988107,20.3871694 45.1814114,21.3306504 44.5455873,21.4998616 C44.2543389,22.337201 43.5205773,24.2723624 42.6632403,25.2507111 C43.7169649,25.7486024 45.927992,26.9084686 46.2166767,27.9960355 C46.3443542,28.0252629 46.4653659,28.0539776 46.5899669,28.0837177 L48.8015068,25.8716651 L48.8015068,29.0784748 C48.8184279,29.0902683 48.835349,29.1030873 48.8527829,29.1153936 L51.1504666,28.3498409 L50.3382526,30.7864829 C50.9576684,31.8099546 51.3653137,33.1333918 51.3653137,34.8008918 L51.3653137,34.8008918 Z M36.3311501,24.6841098 L36.3362777,24.6841098 C37.0695264,25.37121 38.2488776,26.0690783 39.0692958,26.0839483 C39.8538207,26.0690783 41.0741928,25.3609548 41.7874439,24.6841098 C42.6181173,23.8688192 43.5051945,21.4234602 43.6949162,20.8076338 L43.9512969,20.0025984 L44.3307403,20.3820418 C44.4230374,20.2230858 44.5614829,19.9051737 44.7153113,19.2949877 C44.7819703,19.0847555 45.0480935,18.2130612 44.7506919,17.5926199 C44.6891605,17.459302 44.4532903,17.3670049 44.1866544,17.3670049 L43.7713177,17.3670049 L43.6836355,16.9567958 C43.1765145,14.5057964 42.6022217,11.7266298 39.0590406,11.7266298 C35.5107319,11.7266298 34.9415667,14.5006688 34.433933,16.9465406 L34.3518911,17.3516221 L33.9314268,17.3516221 C33.62377,17.3516221 33.4237931,17.4746848 33.3673893,17.5874923 C33.1366467,18.0643604 33.2289437,18.7617159 33.3930274,19.2539668 C33.5519834,19.8897909 33.6955566,20.2128306 33.7878536,20.3769142 L34.1570418,20.007726 L34.4185501,20.7973785 C34.751845,21.8229013 35.5773908,23.9457334 36.3311501,24.6841098 L36.3311501,24.6841098 Z M35.1025738,34.2881304 L33.3489299,31.194641 L33.6037723,30.6988007 L33.1679251,30.6988007 L33.0140967,30.5008748 C32.7192589,30.1224569 32.3177668,29.5532918 32.0772817,29.0082265 C31.876792,29.052324 31.6798916,29.0979597 31.4906827,29.1456465 C29.8652291,29.5502153 27.9782672,31.1392628 27.7936731,34.2881304 L35.1025738,34.2881304 L35.1025738,34.2881304 Z M38.5462792,32.6047348 C37.1756681,31.8725115 36.1373263,28.3877852 35.628667,26.3064868 C34.3021533,26.9653851 32.9982011,27.8263115 32.891034,28.2590821 C32.8884702,28.4400869 33.2448393,29.0856534 33.6745334,29.6737907 L35.2851169,29.6737907 L34.5144365,31.171054 L36.2814122,34.2881304 L38.5462792,34.2881304 L38.5462792,32.6047348 L38.5462792,32.6047348 Z M41.4474831,26.2357257 C40.6829559,26.7238745 39.797417,27.0956265 39.0692958,27.1094711 C38.3032303,27.0956265 37.4305105,26.7192597 36.6690598,26.2295726 C37.4187169,29.1912823 38.5026945,31.7243235 39.0590406,31.7243235 C39.6148739,31.7243235 40.697826,29.1943589 41.4474831,26.2357257 L41.4474831,26.2357257 Z M41.836669,34.2881304 L43.6036447,31.1705412 L42.8329643,29.673278 L44.4435478,29.673278 C44.8727291,29.0846279 45.2290982,28.4364975 45.2234579,28.2360078 C45.1188546,27.8227222 43.8154151,26.9648724 42.4889014,26.305974 C41.9802422,28.3877852 40.9424131,31.8719988 39.571802,32.604222 L39.571802,34.2881304 L41.836669,34.2881304 L41.836669,34.2881304 Z M50.3244081,34.2881304 C50.1403267,31.1392628 48.2528521,29.5502153 46.6273985,29.1456465 C46.4387023,29.0979597 46.2412892,29.052324 46.0413123,29.007201 C45.8008272,29.5522663 45.3988223,30.1224569 45.1039845,30.5008748 L44.9496433,30.6988007 L44.5148216,30.6988007 L44.7696641,31.194641 L43.0160201,34.2881304 L50.3244081,34.2881304 L50.3244081,34.2881304 Z M43.673893,29.1605166 C44.0989722,29.1605166 44.4430351,28.8169665 44.4430351,28.3913745 C44.4430351,27.9668081 44.0989722,27.6222325 43.673893,27.6222325 C43.2488138,27.6222325 42.9047509,27.9668081 42.9047509,28.3913745 C42.9047509,28.8169665 43.2488138,29.1605166 43.673893,29.1605166 L43.673893,29.1605166 Z" id="i-2027" stroke="#B21A8A" stroke-width="0.2" fill="#B21A8A"></path>
                            <circle id="Oval-Copy" fill="#FFFFFF" cx="143.394834" cy="47.0848708" r="23.5424354"></circle>
                            <path d="M152.228598,54.1413592 C150.708773,53.7657503 148.284705,52.9322232 147.303948,52.5200969 C147.003693,51.8448124 146.913848,51.2014084 146.886026,50.8750692 C147.012967,50.7521848 147.141648,50.6246633 147.278444,50.490186 C147.295833,50.4722171 147.313223,50.4548278 147.324815,50.4374385 C148.344988,49.4056734 149.243435,47.0581181 149.597017,46.0553352 C150.315775,45.8582565 150.674574,44.7859164 150.901215,43.8816728 C151.057718,43.4005689 151.375942,42.1717251 150.872232,41.1225707 C150.657764,40.6878383 150.216656,40.3800477 149.672371,40.2646986 C149.54311,39.643321 149.388925,38.9715145 149.173298,38.3037654 C149.015055,37.1114391 148.336293,33.7048755 147.966481,32.9948124 C147.892866,32.8527998 147.762446,32.7473047 147.608841,32.7044111 C146.932977,32.5154474 143.853911,32.1062192 143.391356,32.103321 C142.935756,32.1062192 139.856112,32.5154474 139.180827,32.7044111 C139.026642,32.7473047 138.896802,32.8527998 138.823187,32.9948124 C138.455114,33.7019772 137.781568,37.0812977 137.618688,38.2875354 C137.401322,38.9570234 137.245978,39.6317282 137.117297,40.2536854 C136.572432,40.363238 136.1377,40.6762454 135.917435,41.1167743 C135.413725,42.1659287 135.726153,43.4005689 135.87686,43.8353014 C136.114514,44.7859164 136.474473,45.8582565 137.19323,46.0495387 C137.564202,47.0986931 138.451636,49.4050938 139.466012,50.4368589 C139.477605,50.4542482 139.494414,50.4716375 139.506007,50.4896064 C139.643962,50.6264022 139.774962,50.756822 139.903642,50.8814453 C139.87466,51.2095234 139.784236,51.8488699 139.486299,52.5195172 C138.504963,52.9316436 136.081474,53.764591 134.559331,54.1413592 C131.285506,54.963873 129.483395,56.3984902 129.483395,58.1814729 L129.483395,59.9261993 L157.306273,59.9261993 L157.306273,58.1814729 C157.306273,56.3984902 155.504162,54.963873 152.228598,54.1413592 L152.228598,54.1413592 Z M139.762209,33.7593619 C140.708187,33.5721371 143.117185,33.2643466 143.391356,33.2626076 C143.671324,33.2643466 146.081481,33.5721371 147.026879,33.7593619 C147.225696,34.3645095 147.552615,35.8199938 147.786791,37.0453598 C147.17179,36.4900615 146.734739,36.1608241 146.29305,36.1608241 C145.573713,36.1608241 144.838725,36.3718143 144.248649,36.5416498 C143.908978,36.6396095 143.556554,36.7404674 143.394834,36.7404674 C143.233113,36.7404674 142.88069,36.6396095 142.541019,36.5416498 C141.950942,36.3718143 141.215375,36.1608241 140.496617,36.1608241 C140.054929,36.1608241 139.617878,36.4900615 139.002877,37.0453598 C139.236473,35.8199938 139.563971,34.3645095 139.762209,33.7593619 L139.762209,33.7593619 Z M138.149062,45.249631 C138.085301,45.0583487 137.928798,44.9192343 137.731719,44.8728629 C137.649989,44.8502568 137.563043,44.8502568 137.488269,44.8670664 C137.389729,44.7221556 137.204244,44.3633564 136.989776,43.5107011 C136.926015,43.3194188 136.618804,42.3224323 136.960793,41.6268604 C137.023974,41.4993389 137.250615,41.3608041 137.598401,41.3608041 C137.871413,41.3608041 138.108487,41.1695218 138.166451,40.8965098 C138.304407,40.2252829 138.453954,39.537826 138.646396,38.8770326 C138.911873,38.7014007 139.205752,38.4330258 139.534989,38.1298724 C139.843359,37.8452675 140.358662,37.3705397 140.496617,37.3201107 C141.052495,37.3201107 141.672714,37.4986408 142.221056,37.6557242 C142.676076,37.7867236 143.069074,37.899754 143.394834,37.899754 C143.720593,37.899754 144.113592,37.7867236 144.568612,37.6557242 C145.116375,37.4986408 145.737173,37.3201107 146.242621,37.3143143 C146.431006,37.3705397 146.946888,37.8452675 147.254679,38.1292927 C147.580438,38.429548 147.871999,38.6967635 148.136316,38.8718158 C148.331656,39.5407242 148.480045,40.2362961 148.623216,40.9133195 C148.681181,41.1863315 148.918835,41.3776138 149.191267,41.3776138 C149.544849,41.3776138 149.77091,41.5109317 149.828875,41.6320772 C150.089714,42.1717251 149.985958,42.96004 149.788879,43.5564929 C149.580208,44.3795864 149.400518,44.7331688 149.301979,44.8722832 C149.220249,44.8554736 149.139099,44.86127 149.052153,44.8786593 C148.86087,44.9250308 148.69915,45.075738 148.640606,45.2670203 C148.264417,46.4205105 147.330612,48.8202337 146.466943,49.6543404 C146.449554,49.6723093 146.437961,49.6896986 146.420572,49.7128844 C145.30186,50.813627 144.867128,51.2315498 143.389038,51.2315498 C141.910367,51.2315498 141.475635,50.8200031 140.374892,49.7128844 C140.357503,49.6954951 140.340114,49.672889 140.322724,49.6543404 C139.470649,48.8312469 138.554812,46.5074569 138.149062,45.249631 L138.149062,45.249631 Z M140.156946,53.4921587 L140.343592,53.4075308 L140.435175,53.2243635 C140.697754,52.6992066 140.849041,52.1815852 140.940624,51.7456934 C141.5649,52.1560809 142.275543,52.3908364 143.389038,52.3908364 C144.507169,52.3908364 145.218392,52.1543419 145.847305,51.7387377 C145.938309,52.1763684 146.090175,52.6963084 146.353913,53.2237838 L146.445497,53.4069511 L146.632142,53.491579 C146.918486,53.6219988 147.407704,53.8132811 147.993724,54.0248509 C147.975175,54.1280274 147.519576,56.4483395 145.133764,56.4483395 L141.655904,56.4483395 C139.2898,56.4483395 138.815652,54.1251292 138.795944,54.0254305 C139.381384,53.8138607 139.870603,53.6225784 140.156946,53.4921587 L140.156946,53.4921587 Z M156.146986,58.7669127 L130.642681,58.7669127 L130.642681,58.1814729 C130.642681,56.5022463 133.579154,55.5835117 134.839299,55.2664468 C135.664131,55.0624124 136.720821,54.7366528 137.694622,54.4091544 C137.980966,55.6078567 139.108372,57.6076261 141.655904,57.6076261 L145.133764,57.6076261 C147.681296,57.6076261 148.809282,55.6078567 149.095626,54.4091544 C150.068847,54.7360732 151.124377,55.0618327 151.94805,55.2658672 C153.211093,55.5835117 156.146986,56.5022463 156.146986,58.1814729 L156.146986,58.7669127 L156.146986,58.7669127 Z" id="i-1995" stroke="#8E14B8" stroke-width="0.2" fill="#8E14B8"></path>
                            <circle id="Oval-Copy-2" fill="#FFFFFF" cx="248.265683" cy="33.1734317" r="23.5424354"></circle>
                            <path d="M259.326294,42.4245387 C259.00526,42.1029705 258.319854,41.8252768 257.046958,41.3116236 C256.808323,41.2158487 256.552567,41.1136531 256.288784,41.006107 C256.805648,40.2955535 256.806183,39.2227675 256.806183,38.5239852 C256.806183,37.6026199 256.001995,36.9375461 255.469615,36.4977306 C255.439651,36.4731181 255.407548,36.4463653 255.374375,36.4190775 C255.592677,36.3211624 255.932437,36.2275277 256.14646,36.1676015 C256.916939,35.9541144 257.876294,35.6881919 257.876294,34.7785978 C257.876294,34.1493727 257.381367,33.5388745 256.903028,32.9476384 C256.658508,32.6469373 256.359412,32.2777491 256.279153,32.0615867 C256.337474,31.9840037 256.476589,31.8582657 256.573969,31.7710517 C256.915334,31.4612546 257.341238,31.0760148 257.341238,30.498155 C257.341238,29.2450554 256.571829,28.4719004 256.010556,27.907417 C255.86395,27.7602768 255.726441,27.6243727 255.6205,27.4906089 C255.243286,27.0138745 254.776718,26.1823985 254.655795,25.577786 C253.876755,21.6841882 252.194541,20.8671587 250.920574,20.8671587 C250.174707,20.8671587 249.714024,21.1079336 249.345906,21.3123247 C248.822622,20.9779151 247.679209,20.3321033 246.640131,20.3321033 C244.164965,20.3321033 242.926847,21.701845 242.375205,25.0207934 C242.302972,25.2760148 241.545334,27.2583948 241.40622,27.4895387 C241.298139,27.6243727 241.068065,27.8025461 240.824615,27.9914207 C240.117806,28.5377122 239.149356,29.2867897 239.149356,30.498155 C239.149356,31.0760148 239.574725,31.4612546 239.917161,31.7710517 C240.015076,31.8593358 240.15633,31.986679 240.214116,32.0637269 C240.153655,32.2622325 239.986718,32.4890959 239.810685,32.7282657 C239.500353,33.1482841 239.149356,33.6250185 239.149356,34.2435424 C239.149356,35.0236531 239.711164,35.4928967 240.162751,35.8695756 C240.389615,36.0589852 240.606312,36.2398339 240.720279,36.424428 C240.63574,36.5737085 240.468803,36.8214391 240.339854,37.014059 C239.80908,37.8011255 239.149356,38.7813469 239.149356,39.5940959 C239.149356,40.3592251 239.418489,40.8477306 239.812825,41.1639483 C239.686552,41.2147786 239.562954,41.2645387 239.443637,41.3116236 C238.170205,41.8252768 237.485334,42.1029705 237.164301,42.4245387 C235.874818,43.7140221 236.47408,45.5706642 236.500832,45.6509225 L236.623895,46.0147601 L259.866699,46.0147601 L259.989762,45.6509225 C260.016515,45.5706642 260.615777,43.7140221 259.326294,42.4245387 L259.326294,42.4245387 Z M242.32491,28.525941 C242.364504,28.4424723 242.559264,28.3579336 242.926847,28.3573985 C243.452271,28.3365314 244.058489,27.7185424 244.561976,27.0534686 C245.935998,28.2594834 247.988471,28.4146494 249.533711,28.5312915 C250.115316,28.5751661 251.036681,28.6441882 251.355574,28.8105904 C251.322401,28.8298524 251.288692,28.8485793 251.259799,28.8651661 C250.912013,29.0626015 250.385519,29.3611624 250.385519,29.9630996 C250.385519,30.7667528 251.431017,31.3521033 251.751515,31.5120849 L253.045814,32.1568266 C252.835002,32.9904428 251.664836,36.9188192 248.304688,36.9188192 C244.461921,36.9188192 243.470998,32.199631 243.430869,31.9989852 L243.259651,31.1819557 L242.795758,31.5217159 C242.697843,31.3633395 242.534116,31.0139483 242.348987,30.2707565 C242.17777,29.7571033 242.080925,29.0310332 242.32491,28.525941 L242.32491,28.525941 Z M252.391441,30.5093911 C252.418729,30.5040406 252.461533,30.498155 252.52574,30.498155 C253.63384,30.498155 253.759578,29.3130074 253.826995,28.6768266 C253.836626,28.5912177 253.847862,28.4826015 253.860703,28.3873616 C254.035666,28.4301661 254.155519,28.5104244 254.193508,28.5890775 C254.50491,29.24131 254.227216,30.1525092 254.157659,30.3686716 C253.997677,31.0069926 253.852677,31.3381919 253.756902,31.5045941 L253.278028,31.0305351 L253.081663,32.0021956 C253.081127,32.0048708 253.078452,32.0187823 253.072567,32.0439299 L252.470629,30.7967159 C252.42836,30.7095018 252.394651,30.5826937 252.391441,30.5093911 L252.391441,30.5093911 Z M245.943489,37.4207011 C246.610703,37.767417 247.388139,37.9889299 248.304153,37.9889299 C249.170943,37.9889299 249.911995,37.7791882 250.552991,37.4501292 C250.641275,37.8915498 250.772899,38.3602583 250.97943,38.7647601 C251.193452,39.1906642 251.546054,39.5785793 251.984264,39.9365314 C251.938784,40.8092066 251.551939,41.7343173 248.244762,41.7343173 C244.940795,41.7343173 244.55288,40.8108118 244.506865,39.9386716 C244.946681,39.5801845 245.299818,39.1917343 245.516515,38.7652952 C245.723046,38.347952 245.85574,37.8696125 245.943489,37.4207011 L245.943489,37.4207011 Z M243.548581,40.6026753 C243.944522,42.1500554 245.383821,42.804428 248.244762,42.804428 C251.106773,42.804428 252.546607,42.1495203 252.942013,40.6016052 C253.411257,40.8825092 253.925445,41.1425461 254.453544,41.3854613 C253.83288,42.4213284 251.834449,43.3394834 248.244762,43.3394834 C244.967548,43.3394834 242.869061,42.5470664 242.443692,41.1928413 C242.828397,41.0071771 243.200795,40.8102768 243.548581,40.6026753 L243.548581,40.6026753 Z M256.271127,30.498155 C256.271127,30.6008856 256.000925,30.8454059 255.855925,30.9770295 C255.521515,31.2798708 255.105777,31.6565498 255.210648,32.2044465 C255.300537,32.6699446 255.674541,33.1322325 256.071017,33.6218081 C256.364227,33.9829705 256.806183,34.5287269 256.811533,34.7630812 C256.728065,34.8957749 256.164116,35.0525461 255.861275,35.1360148 C255.167308,35.3280996 254.380242,35.5469373 254.158729,36.2146863 C254.005168,36.675369 254.385592,36.9899815 254.787954,37.322786 C255.165703,37.6347232 255.736072,38.1066421 255.736072,38.5239852 C255.736072,39.8177491 255.592142,40.3522694 255.225629,40.5539852 C253.793286,39.9167343 252.365223,39.1360886 251.931829,38.2832103 C251.70764,37.8385793 251.589928,37.2735609 251.527327,36.7989668 C253.042603,35.5169742 253.759578,33.54369 254.014799,32.663524 C254.654725,32.460738 254.979504,31.4922878 255.183895,30.6677675 C255.274854,30.3959594 255.498508,29.5874908 255.352972,28.7651107 C255.820076,29.2380996 256.271127,29.7415867 256.271127,30.498155 L256.271127,30.498155 Z M246.640131,21.402214 C247.503175,21.402214 248.65943,22.1165129 248.99598,22.3669188 L249.261902,22.5643542 L249.557253,22.4145387 C249.647142,22.368524 249.734891,22.320369 249.82264,22.2711439 C250.15812,22.0849446 250.423508,21.9372694 250.920574,21.9372694 C252.503803,21.9372694 253.25502,24.030941 253.606552,25.7869926 C253.709282,26.3043911 253.97467,26.8902768 254.269485,27.395369 C254.064559,27.3268819 253.840371,27.2878229 253.601201,27.2878229 C252.898674,27.2878229 252.81681,28.0561624 252.763305,28.5639299 C252.739762,28.777952 252.679836,29.3467159 252.52574,29.4280443 C252.442271,29.4280443 252.364153,29.4333948 252.291386,29.4424908 C252.427825,29.3023063 252.52574,29.125738 252.52574,28.8929889 C252.52574,27.6837638 251.111589,27.5772878 249.614504,27.4643911 C247.987401,27.3413284 245.962216,27.1883026 244.917788,25.8833026 L244.461921,25.3140037 L244.055279,25.9202214 C243.63419,26.5494465 243.072917,27.1866974 242.854615,27.288893 C242.780777,27.2899631 242.717105,27.299059 242.649688,27.3044096 C242.996404,26.4638376 243.408397,25.317214 243.422308,25.2358856 C243.959504,22.0132472 244.967548,21.402214 246.640131,21.402214 L246.640131,21.402214 Z M240.219467,39.5940959 C240.219467,39.1082657 240.850297,38.1713838 241.226976,37.6117159 C241.70264,36.9054428 241.919873,36.5822694 241.79681,36.2146863 C241.624522,35.6962177 241.211995,35.3527122 240.848157,35.0482657 C240.457032,34.7218819 240.219467,34.5041144 240.219467,34.2435424 C240.219467,33.9770849 240.439375,33.6779889 240.671589,33.3628413 C240.916644,33.030572 241.193803,32.654428 241.279947,32.2044465 C241.385353,31.6565498 240.96908,31.2798708 240.63467,30.9770295 C240.48967,30.8454059 240.219467,30.6008856 240.219467,30.498155 C240.219467,29.9534686 240.641091,29.5168635 241.110334,29.1305535 C241.085722,29.7512177 241.234467,30.3098155 241.321146,30.5682472 C241.535703,31.4334317 241.858877,32.4115129 242.489707,32.6362362 C242.735832,33.4982103 243.441035,35.4661439 244.964873,36.7609779 C244.900131,37.2617897 244.778674,37.8428598 244.558766,38.2832103 C244.11574,39.1542804 242.635777,39.9493727 241.173471,40.5941144 C240.39229,40.4694465 240.219467,40.1655351 240.219467,39.5940959 L240.219467,39.5940959 Z M259.048065,44.9446494 L237.44253,44.9446494 C237.378323,44.495203 237.372972,43.7300738 237.92408,43.1843173 C238.100648,43.0023985 239.069098,42.6171587 239.844928,42.3068266 C240.324873,42.1147417 240.831035,41.9114207 241.337198,41.6947232 C241.387493,41.7000738 241.437788,41.7043542 241.487548,41.7075646 C241.965353,42.9237454 243.515943,44.4095941 248.244762,44.4095941 C252.566404,44.4095941 254.70181,43.1762915 255.432161,41.8129705 C255.844688,41.9857934 256.254006,42.1500554 256.646201,42.3068266 C257.422032,42.6171587 258.390482,43.0023985 258.56705,43.1843173 C259.117622,43.7300738 259.112271,44.495203 259.048065,44.9446494 L259.048065,44.9446494 Z" id="i-1990" stroke="#8427BC" stroke-width="0.2" fill="#8427BC"></path>
                            <circle id="Oval-Copy-3" fill="#FFFFFF" cx="266.457565" cy="134.833948" r="23.5424354"></circle>
                            <path d="M275.803504,140.722553 C274.559569,140.417789 272.699322,139.795822 271.568472,139.366099 C272.280907,137.721279 272.6032,135.911354 272.744556,134.848921 C272.902875,134.554335 273.038577,134.294805 273.140353,134.096906 C273.98849,134.034709 274.378068,132.881243 274.503027,132.502408 C274.638163,132.129228 274.977984,130.291597 274.486064,129.245562 C274.2876,128.821493 273.892368,128.527472 273.38914,128.414387 L273.39536,128.397425 C273.751577,126.785964 273.94891,124.937025 272.71685,123.39907 C271.506276,121.89504 269.33561,120.922509 267.186996,120.922509 C264.806558,120.922509 262.782337,121.832843 261.640179,123.427341 C260.639377,124.812632 260.401899,126.627645 260.984286,128.408733 C260.611106,128.499201 260.147458,128.714062 259.893016,129.239907 C259.384134,130.291597 259.734697,132.129228 259.870399,132.496754 C260.000447,132.881243 260.396244,134.02849 261.227419,134.097472 C261.329195,134.300459 261.470551,134.566774 261.634525,134.871538 C261.775881,135.935102 262.098173,137.733153 262.804954,139.366665 C261.674104,139.796953 259.813857,140.418355 258.569922,140.723119 C255.374707,141.526022 253.616236,142.922621 253.616236,144.664129 L253.616236,148.056678 L280.756625,148.056678 L280.756625,144.664129 C280.756625,142.922621 278.998154,141.526022 275.803504,140.722553 L275.803504,140.722553 Z M262.555602,124.082668 C263.488552,122.7935 265.173518,122.052793 267.18643,122.052793 C269.255885,122.052793 271.014356,123.087521 271.834222,124.110939 C272.427918,124.845992 272.631471,125.728054 272.48446,127.011568 C272.48446,127.005914 272.478806,127.00026 272.472586,126.994606 C271.873236,126.050346 271.121221,124.879917 270.012989,124.879917 C269.125272,124.879917 268.520267,125.202209 268.000077,125.547118 L267.801613,125.688475 C267.569788,125.846793 267.33231,126.010767 267.1853,126.010767 C267.055252,126.010767 266.851699,125.86941 266.642492,125.716746 C266.563332,125.660203 266.484173,125.603661 266.399359,125.547118 C265.935711,125.236135 265.285472,124.885571 264.358176,124.885571 C263.266906,124.885571 262.514891,126.050346 261.909887,126.988951 C261.88727,127.022877 261.864653,127.068111 261.836381,127.107691 C261.690502,125.993804 261.933634,124.947768 262.555602,124.082668 L262.555602,124.082668 Z M262.222001,133.564841 C262.15415,133.423485 262.091953,133.299092 262.041065,133.197315 L261.684847,132.467917 L261.28905,132.880677 C261.209891,132.767592 261.079843,132.547077 260.932833,132.117354 C260.825402,131.823333 260.604886,130.364537 260.910216,129.731262 C261.023301,129.493783 261.419098,129.488129 261.492603,129.482475 L261.984523,129.522054 L262.086299,129.035789 C262.120225,128.854853 262.159804,128.685226 262.199384,128.515598 C262.414245,128.289428 262.623453,127.972791 262.866585,127.59961 C263.24542,127.005914 263.88435,126.016421 264.359307,126.016421 C264.981274,126.016421 265.405342,126.242591 265.772868,126.485723 C265.846374,126.536612 265.914225,126.5875 265.982076,126.632734 C266.315676,126.870212 266.688857,127.141616 267.18643,127.141616 C267.689658,127.141616 268.09111,126.858904 268.447328,126.610117 L268.627698,126.485723 C269.068729,126.191703 269.458872,126.010767 270.012989,126.010767 C270.504908,126.010767 271.115567,126.966334 271.517019,127.59961 C271.76524,127.989753 271.980667,128.3177 272.206837,128.538215 C272.229454,128.702188 272.252071,128.866162 272.285996,129.030135 L272.393427,129.527709 L272.902309,129.482475 C272.975814,129.482475 273.354649,129.493783 273.461514,129.725607 C273.756101,130.358883 273.541239,131.823333 273.433243,132.128663 C273.291887,132.558385 273.162405,132.778901 273.08268,132.886332 L272.687448,132.48488 L272.330665,133.191661 C272.308048,133.242549 272.274122,133.304746 272.246417,133.372597 C271.742623,134.118958 271.081076,134.452558 270.578413,135.057563 C269.447564,134.492138 269.447564,133.361288 267.185865,133.361288 C264.924166,133.361288 264.924166,134.492138 263.793316,135.057563 C263.324579,134.509101 262.713921,134.187374 262.222001,133.564841 L262.222001,133.564841 Z M268.31728,135.057563 C267.18643,135.622988 267.18643,135.622988 266.055581,135.057563 C265.772868,134.916207 266.621006,136.753837 265.490156,136.753837 C265.032162,136.753837 264.828609,136.069673 264.359307,135.622988 C265.377071,135.30635 265.490156,134.492138 267.18643,134.492138 C268.882705,134.492138 268.99579,135.30635 270.013554,135.622988 C269.55556,136.069673 269.346353,136.753837 268.882705,136.753837 C267.751855,136.753837 268.599992,134.916207 268.31728,135.057563 L268.31728,135.057563 Z M265.490156,137.884687 C266.02731,137.884687 266.496612,137.681699 266.807596,137.307953 C266.994186,137.092526 267.101617,136.855048 267.158159,136.612481 L267.214702,136.612481 C267.271244,136.855613 267.378675,137.093092 267.565265,137.307953 C267.876249,137.681134 268.345551,137.884687 268.882705,137.884687 C269.770422,137.884687 270.239724,137.206742 270.516782,136.804725 C270.619124,136.657715 270.715246,136.522013 270.805714,136.431545 L271.416373,135.820886 L271.438425,135.79318 C270.986085,138.161745 269.849581,141.84266 267.18643,141.84266 C264.511971,141.84266 263.381122,138.15609 262.934436,135.79318 L262.962707,135.827106 L263.562058,136.420802 C263.669488,136.527667 263.765611,136.669023 263.867387,136.816599 C264.144445,137.217485 264.608093,137.884687 265.490156,137.884687 L265.490156,137.884687 Z M263.313271,140.383864 C264.155754,141.84266 265.38838,142.973509 267.18643,142.973509 C268.984481,142.973509 270.217107,141.84266 271.05959,140.383864 C271.235437,140.451715 271.427116,140.519566 271.631234,140.593071 C271.405064,141.786117 270.680755,144.669784 268.88327,144.669784 L265.490722,144.669784 C263.687017,144.669784 262.991544,141.7635 262.782337,140.581763 C262.974016,140.513912 263.149298,140.446061 263.313271,140.383864 L263.313271,140.383864 Z M279.625775,146.925828 L254.747086,146.925828 L254.747086,144.664129 C254.747086,143.024398 257.613789,142.131026 258.840761,141.820608 C259.666281,141.61649 260.72928,141.288544 261.696156,140.960597 C261.984523,142.492898 262.894856,145.800633 265.490156,145.800633 L268.882705,145.800633 C271.466696,145.800633 272.410955,142.504207 272.71063,140.972471 C273.671852,141.294198 274.718454,141.61649 275.5321,141.820608 C276.759072,142.131026 279.625775,143.024398 279.625775,144.664129 L279.625775,146.925828 L279.625775,146.925828 Z" id="i-2013" stroke="#6751BD" stroke-width="0.2" fill="#6751BD"></path>
                            <circle id="Oval-Copy-4" fill="#FFFFFF" cx="14.9815498" cy="119.852399" r="14.9815498"></circle>
                            <path d="M21.4811311,124.399844 L18.6031001,123.682621 C18.5923622,123.666433 18.5805623,123.650834 18.5664811,123.636768 L17.7092196,122.78006 L17.7092196,121.959971 C17.7805695,121.887518 17.8504249,121.812314 17.9183922,121.733928 C18.718267,120.811171 19.1991909,119.568033 19.2726255,118.233504 C19.2755755,118.17995 19.2782894,118.126513 19.2809641,118.073116 C19.2898927,117.896541 19.2983099,117.729789 19.3151838,117.561504 L19.5990103,114.725967 C19.6867228,113.849496 19.3977436,112.972317 18.8060974,112.319217 C18.2144513,111.666077 17.3693436,111.291513 16.4875776,111.291513 L13.3062503,111.291513 C12.4244844,111.291513 11.579416,111.666077 10.9877305,112.319177 C10.396045,112.972278 10.1070659,113.849535 10.1947783,114.725967 L10.4784082,117.559579 C10.4953214,117.728492 10.5038566,117.896659 10.5128639,118.074727 C10.5155385,118.127653 10.5182131,118.180578 10.5211238,118.233504 C10.5945584,119.568033 11.0754823,120.811171 11.8753571,121.733928 C11.9432851,121.812314 12.0131797,121.887479 12.0845297,121.959971 L12.0845297,122.78006 L11.2272288,123.636728 C11.2135016,123.650441 11.2019377,123.665568 11.1913965,123.681285 L8.31253956,124.399884 C7.09254958,124.704549 6.42066421,125.452537 6.42066421,126.506056 L6.42066421,128.560049 C6.42066421,129.069186 6.83531212,129.483395 7.34498843,129.483395 L22.4488395,129.483395 C22.9585158,129.483395 23.3731637,129.069186 23.3731637,128.560049 L23.3731637,126.506016 C23.3731637,125.452537 22.7012784,124.704549 21.4811311,124.399844 L21.4811311,124.399844 Z M14.5822504,127.597411 L15.2115775,127.597411 C15.2335253,127.597411 15.2551978,127.596351 15.2767916,127.594857 L15.4981574,128.894025 L14.2956706,128.894025 L14.5170364,127.594857 C14.5386302,127.596351 14.5603026,127.597411 14.5822504,127.597411 L14.5822504,127.597411 Z M15.5459076,126.674065 C15.5459076,126.858224 15.3959311,127.008042 15.2115775,127.008042 L14.5822504,127.008042 C14.3978969,127.008042 14.2479204,126.858224 14.2479204,126.674065 L14.2479204,126.20312 L14.896914,125.770915 L15.5459076,126.20312 L15.5459076,126.674065 L15.5459076,126.674065 Z M12.6746026,122.465258 C13.3419253,122.941783 14.1052204,123.196783 14.896914,123.196783 C15.6886075,123.196783 16.4519026,122.941783 17.1192254,122.465258 L17.1192254,122.78006 L14.896914,125.000019 L12.6746026,122.78006 L12.6746026,122.465258 L12.6746026,122.465258 Z M16.006221,125.801327 C16.0059064,125.80113 16.0055917,125.800934 16.005277,125.800698 L15.3599414,125.370929 L17.4141832,123.318862 L17.9924561,123.896719 C17.7973254,124.248416 17.3390572,125.072276 16.6920303,126.234553 C16.690811,126.236753 16.6882543,126.241311 16.6810171,126.243079 C16.6726785,126.245122 16.6666999,126.241154 16.6647332,126.239857 L16.006221,125.801327 L16.006221,125.801327 Z M11.4251915,112.714645 C11.9052108,112.184762 12.5908627,111.880883 13.3062503,111.880883 L16.4875776,111.880883 C17.2030046,111.880883 17.8886171,112.184762 18.3686757,112.714645 C18.848695,113.244488 19.0831587,113.956211 19.0119661,114.667266 L18.8323325,116.461622 C18.4337324,115.512737 17.9927315,114.904939 17.9667717,114.869538 C17.872766,114.741409 17.6938797,114.71084 17.5625864,114.800424 C16.787334,115.329128 13.33457,115.396434 12.0693079,115.37781 C11.9839554,115.376199 11.9021822,115.412269 11.8452281,115.475842 C11.483719,115.878932 11.1993024,116.332157 10.9883205,116.729589 L10.7819012,114.667305 C10.7106692,113.95625 10.9451723,113.244527 11.4251915,112.714645 L11.4251915,112.714645 Z M11.110292,118.201167 C11.1074207,118.149067 11.1047854,118.097006 11.1021501,118.044905 C11.1003407,118.008875 11.0984528,117.972413 11.0965254,117.935911 C11.1600875,117.755643 11.5288338,116.762083 12.1980446,115.968713 C13.0143212,115.975864 16.3482997,115.97052 17.6305537,115.427278 C17.8833859,115.825692 18.4164259,116.75835 18.6976172,117.929153 C18.6955719,117.967423 18.6936445,118.005614 18.6917172,118.043373 C18.6890426,118.095905 18.6864073,118.148477 18.6834966,118.201167 C18.547562,120.671962 16.8842897,122.607414 14.896914,122.607414 C12.9095382,122.607414 11.246266,120.671962 11.110292,118.201167 L11.110292,118.201167 Z M12.3796448,123.318862 L14.4338865,125.370929 L13.7884329,125.800776 C13.7881969,125.800934 13.7879216,125.80113 13.7876856,125.801287 L13.1290947,126.239896 C13.1271674,126.241232 13.1211888,126.245161 13.1128109,126.243118 C13.1055736,126.241389 13.103017,126.236792 13.101837,126.234631 C12.4548101,125.072315 11.9965419,124.248455 11.8014112,123.896758 L12.3796448,123.318862 L12.3796448,123.318862 Z M7.01065839,128.560049 L7.01065839,126.506056 C7.01065839,125.727341 7.4968136,125.211092 8.45559348,124.971651 L11.3258365,124.255292 C11.4959122,124.562078 11.8485714,125.196004 12.5862214,126.521065 C12.6684273,126.668722 12.8097899,126.776223 12.9739656,126.815907 C13.0210078,126.827301 13.068876,126.832881 13.1166262,126.832881 C13.2363557,126.832881 13.3551018,126.797676 13.4563842,126.730252 L13.6579655,126.595993 L13.6579655,126.674026 C13.6579655,126.943643 13.774273,127.186581 13.9593739,127.355573 L13.6972198,128.894025 L9.84263047,128.894025 L9.84263047,127.302726 C9.84263047,127.139982 9.71055044,127.008042 9.54763338,127.008042 C9.38471632,127.008042 9.25263629,127.139982 9.25263629,127.302726 L9.25263629,128.894025 L7.34498843,128.894025 C7.16063491,128.894025 7.01065839,128.744207 7.01065839,128.560049 L7.01065839,128.560049 Z M22.7831696,128.560049 C22.7831696,128.744207 22.633193,128.894025 22.4488395,128.894025 L20.5411917,128.894025 L20.5411917,127.302726 C20.5411917,127.139982 20.4091116,127.008042 20.2461946,127.008042 C20.0832775,127.008042 19.9511975,127.139982 19.9511975,127.302726 L19.9511975,128.894025 L16.0966081,128.894025 L15.8344541,127.355613 C16.0195549,127.18666 16.1358624,126.943682 16.1358624,126.674065 L16.1358624,126.596033 L16.3374438,126.730291 C16.4387261,126.797754 16.5574723,126.83292 16.6772018,126.83292 C16.724952,126.83292 16.7728595,126.827301 16.8198624,126.815946 C16.9840381,126.776223 17.1254007,126.668761 17.2076065,126.521065 C17.9444699,125.19738 18.2971685,124.563414 18.4674408,124.256235 L21.3381558,124.971651 C22.2970144,125.211092 22.7831696,125.727341 22.7831696,126.506016 L22.7831696,128.560049 L22.7831696,128.560049 Z" id="Shape" stroke="#8F10B7" stroke-width="0.2" fill="#8F10B7"></path>
                            <circle id="Oval-Copy-5" fill="#FFFFFF" cx="48.6900369" cy="201.715867" r="20.8671587"></circle>
                            <path d="M57.6777834,209.961516 C57.4695577,209.75329 57.0749544,209.563346 56.4088105,209.288684 C57.1525374,208.269403 57.3460491,206.818512 57.3580879,206.727552 L57.4472638,206.005228 L56.7650682,206.250907 C56.4707877,206.357472 56.1408369,206.415437 55.8108861,206.415437 C54.9418671,206.415437 54.2953419,206.045357 54.2373775,205.70203 C54.0857785,204.837023 54.4647761,204.444649 55.2093947,203.77583 C55.9718486,203.089176 56.9171131,202.237546 56.9171131,200.427276 C56.9171131,197.511224 54.9686198,196.503536 54.8883615,196.463407 L54.8268302,196.432641 C54.0741856,194.275031 51.9616088,191.549815 48.4449575,191.549815 C45.0848099,191.549815 42.3257078,194.156427 41.8405909,196.598509 C41.3608246,196.905274 39.9732478,198.003475 39.9732478,200.467405 C39.9732478,202.277675 40.9185122,203.129751 41.6809661,203.815959 C42.4255848,204.484779 42.8045823,204.872694 42.6574421,205.742159 C42.5994778,206.076568 41.944035,206.438177 41.0656524,206.438177 C40.7401604,206.438177 40.4102096,206.384225 40.1159292,206.286132 L39.4426512,206.063192 L39.5318271,206.763223 C39.5438658,206.858641 39.7333646,208.278767 40.4588105,209.298047 C39.8055971,209.567804 39.4181278,209.75552 39.2121315,209.961516 C38.1380079,211.03564 38.6365011,212.58195 38.6583492,212.647048 L38.7600098,212.95203 L58.1294593,212.95203 L58.2311198,212.647048 C58.2529679,212.58195 58.751907,211.03564 57.6777834,209.961516 L57.6777834,209.961516 Z M54.6404526,199.774954 C55.0323806,198.991098 55.175062,198.444004 55.13092,197.801937 C55.5527219,198.275461 56.0249083,199.099001 56.0249083,200.427276 C56.0249083,201.840713 55.3382539,202.460486 54.6114704,203.115483 C53.9114396,203.744173 53.1177742,204.462485 53.3540903,205.853629 C53.5012305,206.696787 54.531658,207.307196 55.8108861,207.307196 C55.985225,207.307196 56.1631309,207.294265 56.3374698,207.271525 C56.2059353,207.786962 55.9566887,208.486993 55.5429126,208.938223 C54.061701,208.343419 52.0111014,207.48198 51.5197422,206.510409 C51.4212029,206.313776 51.3489704,206.088161 51.2932355,205.860763 C52.3508615,204.800015 52.9701881,203.372755 53.2118548,202.724001 C53.2131924,202.723555 53.21453,202.723109 53.2154218,202.723109 C53.6532754,202.600492 53.9658369,202.075692 54.2190965,201.05552 C54.2632385,200.924431 54.3443886,200.639068 54.3827342,200.291728 L54.6404526,199.774954 L54.6404526,199.774954 Z M43.4430817,199.476215 C44.3464335,199.737946 45.9145916,200.025984 48.4449575,200.025984 C50.9713105,200.025984 52.5381309,199.739284 53.4419286,199.477998 C53.6055663,200.002798 53.4165134,200.641744 53.362562,200.805827 C53.2301358,201.337761 53.1093025,201.612869 53.029936,201.751538 L52.6946346,201.419357 L52.4770454,202.121617 C52.4641149,202.162192 51.1590257,206.263838 48.4449575,206.263838 C45.7304433,206.263838 44.4253542,202.162192 44.4124237,202.120726 L44.1943886,201.418911 L43.859979,201.7502 C43.7792748,201.609302 43.6557662,201.325723 43.5166518,200.771494 C43.4725098,200.638177 43.2803357,200.000123 43.4430817,199.476215 L43.4430817,199.476215 Z M42.8959876,198.317374 L42.6846408,198.176922 C42.6783984,198.126092 42.6779526,198.079274 42.6739396,198.029336 C42.9263074,196.064791 45.3670516,194.670972 48.3811967,194.670972 L48.3820885,194.670972 C51.2620239,194.670972 53.7268455,196.322063 54.169158,198.207242 L53.9992779,198.314253 C53.9863474,198.322279 52.6460337,199.134225 48.4449575,199.134225 C44.2438812,199.134225 42.9040134,198.322279 42.8959876,198.317374 L42.8959876,198.317374 Z M46.1687428,206.908579 C46.2365165,206.773032 46.2935891,206.629013 46.3435276,206.482319 C46.9392225,206.886285 47.6347945,207.155597 48.4449575,207.155597 C49.2555663,207.155597 49.9515842,206.886285 50.5472791,206.481427 C50.5976635,206.629459 50.6538443,206.77437 50.7225098,206.910809 C51.0524606,207.56313 51.76453,208.112008 52.6170516,208.588207 C51.561209,209.437162 49.0254925,210.691867 48.3339335,210.722632 C47.7306586,210.722632 45.3010614,209.458118 44.2661752,208.591774 C45.1218179,208.114683 45.8370085,207.564022 46.1687428,206.908579 L46.1687428,206.908579 Z M48.4525374,192.441574 C51.7145916,192.441574 53.7678665,195.360747 54.1834261,197.433195 C54.2378234,197.707411 54.261455,197.935255 54.246741,198.158195 L54.195019,198.190744 C53.8418824,195.689806 51.7288597,193.333333 48.3811967,193.333333 L48.3811967,193.334225 C44.9242933,193.333333 42.9080264,195.428967 42.6712644,197.993665 C42.6534292,197.765821 42.6485245,197.54734 42.6485245,197.34179 C42.6485245,195.368773 45.0825805,192.441574 48.4525374,192.441574 L48.4525374,192.441574 Z M41.0656524,207.329935 C42.376538,207.329935 43.3886844,206.736916 43.5358246,205.893758 C43.7721408,204.498155 42.9784753,203.784748 42.2784446,203.151599 C41.551661,202.496156 40.8650067,201.880843 40.8650067,200.467405 C40.8650067,199.133333 41.3403142,198.30801 41.7643455,197.834041 C41.7870854,198.374446 41.8784907,199.032565 42.2499083,199.774954 L42.5067348,200.288161 C42.5437428,200.629705 42.6226635,200.905704 42.6623468,201.021187 C42.9254157,202.075246 43.2379772,202.600046 43.6753849,202.722217 C43.6762767,202.722663 43.6776143,202.722663 43.6785061,202.723109 C43.9201727,203.371418 44.5390534,204.797786 45.5957877,205.859425 C45.5396069,206.090391 45.4682662,206.31556 45.3724021,206.50818 C44.8774759,207.486885 42.8085952,208.351891 41.326046,208.94714 C40.9234169,208.49056 40.6808585,207.800784 40.5488781,207.293819 C40.7223253,207.315667 40.8917594,207.329935 41.0656524,207.329935 L41.0656524,207.329935 Z M57.4490473,212.060271 L39.4408677,212.060271 C39.3886998,211.686624 39.3860245,211.04857 39.8426051,210.59199 C39.9928665,210.441728 40.797233,210.119357 41.4437582,209.860301 C42.0777988,209.606596 42.7662367,209.330151 43.4221254,209.021602 C44.4668209,210.042666 47.3793056,211.613499 48.3531063,211.613499 L48.3535522,211.613499 C49.3264612,211.570249 52.3896531,210.048462 53.4664519,209.020264 C54.1227865,209.328813 54.8121162,209.605704 55.4466026,209.860301 C56.092682,210.119357 56.8974944,210.441728 57.0477558,210.59199 C57.5038904,211.049016 57.501661,211.687069 57.4490473,212.060271 L57.4490473,212.060271 Z" id="i-2018" stroke="#7831B9" stroke-width="0.2" fill="#7831B9"></path>
                            <circle id="Oval-Copy-6" fill="#FFFFFF" cx="255.221402" cy="211.346863" r="16.5867159"></circle>
                            <path d="M262.092628,207.33328 L262.054728,207.465929 C261.671561,208.925069 261.497222,209.592105 262.085048,210.763207 C262.346177,211.286224 262.987062,211.85093 263.3581,212.08174 L264.013766,212.494847 L263.938346,211.722071 C263.870126,211.081565 263.779167,210.198501 263.949716,209.247217 C264.135424,208.204974 264.317343,207.098301 264.317343,206.044688 C264.317343,202.910378 262.873363,202.250923 261.66436,202.250923 C260.951845,202.250923 260.337869,202.70193 259.883072,203.194626 C259.720103,203.080927 259.553344,203.008918 259.390375,203.008918 L259.223616,203.008918 C259.109917,203.008918 258.920418,203.008918 258.776399,203.156727 C258.62859,203.300746 258.63238,203.482665 258.63238,203.672163 L258.63238,203.766913 C258.63238,203.87758 258.669522,204.023873 258.729403,204.184568 C258.519439,203.912069 258.281428,203.669889 258.008929,203.464852 C257.270642,202.910757 256.333381,202.62992 255.221402,202.62992 C253.678124,202.62992 252.526351,203.100256 251.76684,204.028042 C251.793748,203.93064 251.809287,203.841954 251.809287,203.76805 L251.809666,203.672163 C251.811182,203.481907 251.813077,203.302262 251.667163,203.154832 C251.522765,203.008918 251.332129,203.008918 251.21843,203.008918 L251.051671,203.009676 C250.889839,203.009676 250.722701,203.082443 250.561248,203.198037 C250.104177,202.706478 249.491717,202.250923 248.778444,202.250923 C247.569442,202.250923 246.125461,202.910378 246.125461,206.044688 C246.125461,207.098301 246.30738,208.204974 246.493089,209.247217 C246.663638,210.198501 246.572678,211.077775 246.504459,211.722071 L246.428659,212.494847 L247.084325,212.08174 C247.455743,211.85093 248.096248,211.285845 248.357757,210.763207 C248.945203,209.592105 248.770864,208.925069 248.388077,207.465929 L248.346387,207.31054 C248.240268,206.912592 248.122778,206.461585 248.012869,205.961308 C247.87643,205.351122 247.92191,204.460478 248.278167,204.017051 C248.410816,203.850292 248.569995,203.770703 248.778444,203.770703 C249.119921,203.770703 249.481105,203.905247 249.791883,204.133403 C249.634599,204.426368 249.535302,204.714028 249.535302,204.905042 L249.534923,205.000929 C249.533028,205.191185 249.531512,205.370451 249.677426,205.51826 C249.822203,205.664174 250.01246,205.664174 250.126538,205.664174 L250.293297,205.663416 C250.56807,205.663416 250.857625,205.459137 251.109658,205.178679 C250.826547,205.916208 250.68177,206.814053 250.675327,207.869182 C250.406617,208.528259 250.593084,209.271094 250.684423,209.543972 C250.901588,210.416046 251.158549,210.861747 251.514806,210.980752 C251.670195,211.55986 252.083303,212.798424 252.91975,213.700059 C252.881092,214.087395 252.793544,214.597146 252.609351,214.966669 C252.167819,215.839121 250.254639,216.605454 248.988409,217.112553 C248.083363,217.474875 247.60052,217.674227 247.3735,217.901626 C246.460495,218.814631 246.884214,220.128994 246.902785,220.184328 L246.989197,220.442804 L263.453229,220.442804 L263.53964,220.18357 C263.558211,220.128236 263.982309,218.813873 263.069304,217.900868 C262.842285,217.673469 262.359442,217.474117 261.454017,217.111795 C260.187786,216.604696 258.274606,215.838363 257.834211,214.967427 C257.640544,214.58047 257.557922,214.06655 257.522296,213.69968 C258.359123,212.797666 258.77223,211.558723 258.927619,210.979615 C259.283498,210.86061 259.540458,210.415667 259.749665,209.572397 C259.827738,209.339313 260.045662,208.552894 259.76672,207.864255 C259.75914,206.770847 259.584043,205.84344 259.250525,205.081276 C259.520371,205.411762 259.843656,205.6619 260.14837,205.6619 L260.315129,205.66569 C260.428828,205.66569 260.622117,205.66569 260.765757,205.517881 C260.909776,205.370072 260.909776,205.191943 260.905986,204.998655 L260.905986,204.903905 C260.905986,204.714407 260.811237,204.426368 260.652058,204.13454 C260.963215,203.903352 261.323263,203.770703 261.66436,203.770703 C261.872809,203.770703 262.031988,203.850292 262.164637,204.017051 C262.520516,204.460478 262.566375,205.351122 262.429556,205.961308 C262.320026,206.469165 262.198747,206.927752 262.092628,207.33328 L262.092628,207.33328 Z M247.686931,203.543304 C247.152545,204.20655 247.099485,205.347332 247.270034,206.128067 C247.383733,206.639714 247.505012,207.102091 247.614922,207.503828 L247.652821,207.655427 C248.016659,209.042558 248.137938,209.508725 247.679351,210.422109 C247.611132,210.566129 247.482272,210.729097 247.334463,210.884107 C247.360993,210.35768 247.353413,209.755074 247.239714,209.114568 C247.057795,208.106435 246.883456,207.037661 246.883456,206.044688 C246.883456,203.323486 247.963599,203.008918 248.778444,203.008918 C248.816344,203.008918 248.850454,203.012708 248.888353,203.016498 C248.414606,202.989968 247.986339,203.168097 247.686931,203.543304 L247.686931,203.543304 Z M250.293297,204.905042 C250.29595,204.664 250.831853,203.836648 251.051292,203.76805 C251.048639,204.009092 250.513116,204.836444 250.293297,204.905042 L250.293297,204.905042 Z M255.221402,203.387915 C256.165106,203.387915 256.95001,203.617588 257.553374,204.070869 C258.453493,204.746621 258.940884,205.919619 259.004177,207.560678 L257.330903,207.560678 L255.6004,204.670443 L255.6004,207.560678 L251.43787,207.560678 C251.568624,203.830205 253.646288,203.387915 255.221402,203.387915 L255.221402,203.387915 Z M256.84048,214.281062 C256.901877,214.620265 256.997385,214.98903 257.156943,215.307767 C257.212655,215.418055 257.285044,215.523795 257.365012,215.627641 C257.042864,216.09684 256.413728,216.652829 255.221402,216.652829 C254.029076,216.652829 253.39994,216.096461 253.077792,215.627641 C253.15814,215.523416 253.230528,215.416918 253.28662,215.305872 C253.44542,214.987893 253.541306,214.619886 253.602325,214.281441 C254.052574,214.572133 254.586581,214.757841 255.221402,214.757841 C255.856602,214.757841 256.39061,214.572133 256.84048,214.281062 L256.84048,214.281062 Z M257.853919,216.75061 C257.824736,216.8681 257.590895,216.978009 257.402912,217.066694 C257.122075,217.198206 256.737392,217.379746 256.737392,217.789822 C256.737392,217.885329 256.529323,218.032001 256.272741,218.032001 C256.151462,218.032001 255.977502,217.999786 255.836894,217.846671 C255.738355,217.739036 255.672788,217.581373 255.636026,217.3896 C256.661593,217.292577 257.32446,216.844981 257.742115,216.379572 C257.870595,216.607349 257.862636,216.71688 257.853919,216.75061 L257.853919,216.75061 Z M252.701069,216.379572 C253.118345,216.844981 253.781591,217.292577 254.807158,217.389221 C254.770016,217.580994 254.704829,217.738657 254.606289,217.846292 C254.465681,217.999407 254.291342,218.031622 254.170063,218.031622 C253.913482,218.031622 253.705412,217.88495 253.705412,217.789443 C253.705412,217.379367 253.32073,217.197827 253.039892,217.066315 C252.85191,216.97763 252.617689,216.867721 252.588506,216.750231 C252.580547,216.71688 252.572209,216.607728 252.701069,216.379572 L252.701069,216.379572 Z M262.533402,218.43677 C262.921495,218.825243 262.9196,219.367588 262.874879,219.684809 L247.567926,219.684809 C247.523583,219.367209 247.521309,218.824864 247.909403,218.43677 C248.037125,218.309048 248.720836,218.035033 249.270383,217.814835 C250.104556,217.480939 251.04826,217.101941 251.828995,216.644491 C251.822552,216.744546 251.830132,216.840812 251.853251,216.933287 C251.969224,217.400212 252.401661,217.603734 252.717365,217.751922 C252.79127,217.78679 252.895494,217.836059 252.951965,217.871685 C253.003509,218.384848 253.529936,218.789617 254.170442,218.789617 C254.55702,218.789617 254.910245,218.636502 255.165311,218.358697 C255.186913,218.335199 255.202073,218.305258 255.22216,218.280623 C255.242247,218.305258 255.257028,218.335199 255.278631,218.358697 C255.533696,218.636123 255.886543,218.789617 256.27312,218.789617 C256.913247,218.789617 257.440054,218.384848 257.491597,217.871685 C257.547689,217.83568 257.651913,217.786411 257.725818,217.751922 C258.041523,217.603355 258.473959,217.400212 258.589932,216.933287 C258.613051,216.840812 258.620631,216.744546 258.614188,216.64487 C259.394923,217.101941 260.338248,217.480939 261.172422,217.814835 C261.721589,218.035033 262.40568,218.309048 262.533402,218.43677 L262.533402,218.43677 Z M259.022369,209.360158 C258.910185,209.810407 258.808235,210.04387 258.740773,210.161738 L258.400813,209.822156 L258.260962,210.513827 C258.253762,210.549074 257.530255,213.999846 255.221402,213.999846 C252.912549,213.999846 252.189043,210.549074 252.181842,210.514206 L252.041613,209.821019 L251.701652,210.161359 C251.633433,210.041217 251.529208,209.800554 251.412098,209.332492 C251.362828,209.183546 251.233211,208.724579 251.323413,208.318294 L256.358395,208.318294 L256.358395,207.410974 L256.901877,208.318294 L259.12015,208.318294 C259.211867,208.744666 259.065574,209.229783 259.022369,209.360158 L259.022369,209.360158 Z M260.034671,204.816736 C259.780743,204.596917 259.428275,204.032211 259.394165,203.801022 C259.390375,203.793442 259.390375,203.782073 259.390375,203.774493 C259.394165,203.778283 259.401745,203.778283 259.405535,203.785863 C259.613984,203.891982 259.970241,204.407419 260.099101,204.721986 C260.12563,204.793996 260.14458,204.854636 260.14837,204.900115 C260.11426,204.884955 260.076361,204.858426 260.034671,204.816736 L260.034671,204.816736 Z M262.789983,207.655427 L262.824093,207.526568 C262.934002,207.113461 263.055281,206.651084 263.17315,206.128067 C263.343319,205.347332 263.290639,204.20655 262.755873,203.543304 C262.479205,203.194626 262.100208,203.012708 261.66436,203.012708 C261.626461,203.012708 261.588561,203.012708 261.554451,203.016498 C261.588561,203.012708 261.626461,203.008918 261.66436,203.008918 C262.479205,203.008918 263.559348,203.323486 263.559348,206.044688 C263.559348,207.033871 263.385009,208.106435 263.20309,209.114568 C263.089391,209.755074 263.08219,210.35768 263.104551,210.884107 C262.960532,210.729097 262.831673,210.566129 262.759663,210.422109 C262.304866,209.508725 262.426145,209.042558 262.789983,207.655427 L262.789983,207.655427 Z" id="i-2014" stroke="#5268BC" stroke-width="0.2" fill="#5268BC"></path>
                        </g>
                    </g>
                </g>
            </g>
        </g>
    </g>
</svg>