<?xml version="1.0" encoding="UTF-8"?>
<svg width="157px" height="122px" viewBox="0 0 157 122" version="1.1" xmlns="http://www.w3.org/2000/svg" xmlns:xlink="http://www.w3.org/1999/xlink">
    <!-- Generator: Sketch 48.1 (47250) - http://www.bohemiancoding.com/sketch -->
    <title>Icon] Copy</title>
    <desc>Created with Sketch.</desc>
    <defs></defs>
    <g id="Notifications" stroke="none" stroke-width="1" fill="none" fill-rule="evenodd" transform="translate(-30.000000, -140.000000)">
        <g id="Group" transform="translate(16.000000, 72.000000)">
            <g id="CTA">
                <g id="Text">
                    <g id="Icon]-Copy" transform="translate(12.000000, 68.000000)">
                        <path d="M80,118 C72.2011403,118 65.8823529,111.504874 65.8823529,103.6 L65.8823529,99.6 L94.1176471,99.6 L94.1176471,103.6 C94.1176471,111.504874 87.7988597,118 80,118 Z M116.882353,81.1752977 L127,91.5752977 L127,102.4 L33,102.4 L33,91.5752977 L43.1176471,81.1752977 L43.1176471,54.2 C43.1176471,37.5992163 53.3451858,23.5437784 68.4117647,18.44613 L68.4117647,17.8 C68.4117647,11.4551256 73.7187874,6 80,6 C86.2812126,6 91.5882353,11.4551256 91.5882353,17.8 L91.5882353,18.44613 C106.654814,23.5437784 116.882353,37.5992163 116.882353,54.2 L116.882353,81.1752977 Z" id="Shape" stroke="#FFFFFF" stroke-width="8" stroke-linecap="round" stroke-linejoin="round" fill-rule="nonzero"></path>
                        <circle id="Oval-4" fill="#FE385E" cx="121.5" cy="29.5" r="29.5"></circle>
                        <text id="!" font-family=".SFNSDisplay, .SF NS Display" font-size="38" font-weight="normal" letter-spacing="1.72727215" fill="#FFFFFF">
                            <tspan x="115.885387" y="44">!</tspan>
                        </text>
                        <g id="Group-2" transform="translate(148.500000, 102.500000) rotate(8.000000) translate(-148.500000, -102.500000) translate(140.000000, 86.000000)" stroke="#FFFFFF" stroke-linecap="round" stroke-linejoin="round" stroke-width="3">
                            <path d="M0.401162958,25.7292717 C3.19370811,23.6314152 5,20.291638 5,16.5299787 C5,12.8092579 3.23281019,9.50128631 0.49198589,7.39961938" id="Oval"></path>
                            <path d="M8.72020729,32.4290814 C13.554201,28.7976181 16.6809557,23.0163465 16.6809557,16.5047823 C16.6809557,10.0640838 13.6218881,4.33786894 8.87742497,0.699809689" id="Oval"></path>
                        </g>
                        <g id="Group-2" transform="translate(12.500000, 102.500000) rotate(-195.000000) translate(-12.500000, -102.500000) translate(4.000000, 86.000000)" stroke="#FFFFFF" stroke-linecap="round" stroke-linejoin="round" stroke-width="3">
                            <path d="M0.401162958,25.7292717 C3.19370811,23.6314152 5,20.291638 5,16.5299787 C5,12.8092579 3.23281019,9.50128631 0.49198589,7.39961938" id="Oval"></path>
                            <path d="M8.72020729,32.4290814 C13.554201,28.7976181 16.6809557,23.0163465 16.6809557,16.5047823 C16.6809557,10.0640838 13.6218881,4.33786894 8.87742497,0.699809689" id="Oval"></path>
                        </g>
                    </g>
                </g>
            </g>
        </g>
    </g>
</svg>