<?xml version="1.0" encoding="UTF-8"?>
<svg width="24px" height="24px" viewBox="0 0 24 24" version="1.1" xmlns="http://www.w3.org/2000/svg" xmlns:xlink="http://www.w3.org/1999/xlink">
    <!-- Generator: Sketch 48.1 (47250) - http://www.bohemiancoding.com/sketch -->
    <title>Sync</title>
    <desc>Created with Sketch.</desc>
    <defs>
        <linearGradient x1="100%" y1="7.35138924%" x2="26.1226531%" y2="79.0088284%" id="linearGradient-1">
            <stop stop-color="#B4EC51" offset="0%"></stop>
            <stop stop-color="#429321" offset="100%"></stop>
        </linearGradient>
    </defs>
    <g id="5.2.-On-Friendthem" stroke="none" stroke-width="1" fill="none" fill-rule="evenodd" transform="translate(-33.000000, -277.000000)">
        <g id="Super-connect" transform="translate(10.000000, 158.000000)">
            <g id="Group-4-Copy">
                <g id="1">
                    <g id="Sync" transform="translate(23.000000, 119.000000)">
                        <circle id="Oval" fill="url(#linearGradient-1)" cx="11.8095238" cy="11.8095238" r="11.8095238"></circle>
                        <path d="M14.9271902,9.44761905 C13.0507226,9.44761905 11.8089011,11.0270781 10.7133265,12.4208997 C9.77729385,13.6115898 8.89338534,14.735929 7.81682897,14.735929 C6.69783372,14.735929 6.01079934,13.5519465 6.01079934,12.7031629 C6.01079934,11.916198 6.76448565,10.7725518 7.94573046,10.7725518 C9.09193237,10.7725518 9.68907029,11.7169641 9.71918252,11.7653676 C9.90487463,12.0747331 10.2991512,12.172084 10.601154,11.9824582 C10.9046536,11.7921074 11.0008014,11.3844845 10.8158137,11.0720372 C10.7765445,11.0058676 9.83258766,9.44770969 7.94573046,9.44770969 C6.04707489,9.44770969 4.72380952,11.1635869 4.72380952,12.7032536 C4.72380952,14.2914144 5.99407032,16.0609524 7.81674092,16.0609524 C9.50716422,16.0609524 10.628977,14.6342272 11.7136337,13.2543647 C12.7170227,11.9782886 13.6648536,10.7726424 14.9271902,10.7726424 C15.678235,10.7726424 16.1717411,11.0349641 16.4355313,11.573929 C16.6641025,12.0416483 16.6639264,12.5709144 16.6637503,12.7542857 C16.6637503,12.8594319 16.6097772,13.3867945 16.3598985,13.8616746 C16.0749769,14.4026337 15.6704869,14.6544407 15.0859397,14.6544407 C13.9088332,14.6544407 13.2728663,13.8667506 13.0333772,13.5700752 C12.9711276,13.4928471 12.9263115,13.4372828 12.8664392,13.3845284 C12.5968379,13.1467711 12.1904108,13.1786775 11.959022,13.4565898 C11.7359097,13.724622 11.7573933,14.1230898 12.0011087,14.3642916 C12.012731,14.3778881 12.0267305,14.3957448 12.0433715,14.4165021 C12.3554998,14.8031863 13.3045634,15.9791921 15.0856756,15.9791921 C17.2504106,15.9791921 17.950476,13.8062009 17.950476,12.7452214 C17.9506521,12.0694758 17.8277378,11.4750372 17.5847268,10.9780401 C17.2435429,10.2800869 16.5053529,9.44761905 14.9271902,9.44761905 Z" id="Shape" fill="#FFFFFF" fill-rule="nonzero"></path>
                    </g>
                </g>
            </g>
        </g>
    </g>
</svg>