<?xml version="1.0" encoding="UTF-8"?>
<svg width="24px" height="25px" viewBox="0 0 24 25" version="1.1" xmlns="http://www.w3.org/2000/svg" xmlns:xlink="http://www.w3.org/1999/xlink">
    <!-- Generator: Sketch 48.1 (47250) - http://www.bohemiancoding.com/sketch -->
    <title>light-bulb-on</title>
    <desc>Created with Sketch.</desc>
    <defs></defs>
    <g id="14.-General-Settings" stroke="none" stroke-width="1" fill="none" fill-rule="evenodd" transform="translate(-11.000000, -253.000000)">
        <g id="Notifications" transform="translate(-4.000000, 96.000000)" fill="#FF1B71" fill-rule="nonzero" stroke="#FF1B71" stroke-width="0.2">
            <g id="General-Settings">
                <g id="Terms-and-conditions" transform="translate(4.000000, 132.000000)">
                    <g id="light-bulb-on" transform="translate(12.000000, 26.000000)">
                        <path d="M15.171122,2.7066994 L15.8008223,1.64939888 C15.9436958,1.39298455 16.2585639,1.3057771 16.5151897,1.44851285 C16.7718155,1.5912486 16.8591431,1.9058132 16.7162696,2.16219161 L16.0865693,3.21949213 C16.0019022,3.39132098 15.8008223,3.47590645 15.6288277,3.47590645 C15.5441606,3.47590645 15.456833,3.44681336 15.3722019,3.41775618 C15.1129156,3.2776424 15.0282485,2.9657357 15.171122,2.7066994 Z M5.91339476,3.22215002 C5.99806186,3.39397886 6.19914173,3.47856434 6.37113638,3.47856434 C6.45580348,3.47856434 6.54313103,3.44947125 6.62779813,3.42041407 C6.88445989,3.27767832 6.97175149,2.96311372 6.828878,2.70673532 L6.19917768,1.64943479 C6.05630419,1.39302047 5.74143606,1.30581302 5.48481025,1.44854877 C5.22818445,1.59128452 5.1408569,1.90584912 5.28373039,2.16222752 L5.91339476,3.22215002 Z M10.9986698,2.25205694 C11.2844167,2.25205694 11.5119573,2.02473571 11.5119573,1.73926421 L11.5119573,0.51279273 C11.5119573,0.227321229 11.2844167,0 10.9986698,0 C10.7129228,0 10.4853822,0.227321229 10.4853822,0.51279273 L10.4853822,1.73926421 C10.4562611,2.02211374 10.6838016,2.25205694 10.9986698,2.25205694 Z M1.74094253,10.4435589 L0.513287554,10.4435589 C0.227540585,10.4435589 0,10.6708802 0,10.9563517 C0,11.2418232 0.227540585,11.4691444 0.513287554,11.4691444 L1.74094253,11.4691444 C2.0266895,11.4691444 2.25423009,11.2418232 2.25423009,10.9563517 C2.25423009,10.6708802 2.0266895,10.4435589 1.74094253,10.4435589 Z M21.4867124,10.4435589 L20.2590575,10.4435589 C19.9733105,10.4435589 19.7457699,10.6708802 19.7457699,10.9563517 C19.7457699,11.2418232 19.9733105,11.4691444 20.2590575,11.4691444 L21.4867124,11.4691444 C21.7724594,11.4691444 22,11.2418232 22,10.9563517 C22,10.6708802 21.7724594,10.4435589 21.4867124,10.4435589 Z M20.542144,5.47686485 C20.3992705,5.22045053 20.0844024,5.13324308 19.8277766,5.27597883 L18.7694558,5.9050721 C18.51283,6.04780785 18.4255024,6.36237245 18.5683759,6.61875085 C18.653043,6.7905797 18.8541229,6.87516518 19.0261175,6.87516518 C19.1107846,6.87516518 19.1981122,6.84607208 19.2827433,6.8170149 L20.3410641,6.18792163 C20.6003504,6.04780785 20.6850175,5.73324326 20.542144,5.47686485 Z M17.7428807,10.9008593 C17.7428807,12.0718384 17.4280125,13.2137244 16.8565186,14.2419677 C16.8274334,14.3265532 16.7983122,14.3847035 16.7427303,14.4428538 L16.6845239,14.5274392 C16.4569834,14.871061 16.2267823,15.2120608 15.9410354,15.4975323 C14.940921,16.8958326 14.4276334,18.0958689 14.4540941,18.865076 L14.4540941,18.8941691 C14.4540941,18.9523193 14.4832153,19.0369048 14.4832153,19.1214903 L14.4832153,21.5770911 C14.4832153,22.6608269 13.5968532,23.5172414 12.5411929,23.5172414 L9.37151551,23.5172414 C8.28673402,23.5172414 7.42949311,22.6317338 7.42949311,21.5770911 L7.42949311,19.1214903 C7.42949311,19.06334 7.42949311,19.0369048 7.42949311,18.9787545 C7.42949311,18.9496614 7.42949311,18.8941691 7.42949311,18.8651119 C7.45861428,18.12234 6.94266627,16.9513969 6.00075826,15.5821537 C5.68589012,15.2385319 5.37105794,14.868475 5.14351735,14.4402677 C5.11443214,14.3821174 5.08531097,14.3556822 5.05885025,14.297532 C4.45823515,13.2692886 4.14340296,12.0983454 4.14340296,10.9299883 C4.14340296,7.18976569 7.20198848,4.13678663 10.9431598,4.13678663 C14.6842952,4.10765762 17.7428807,7.16063668 17.7428807,10.9008593 Z M13.427519,19.40689 L8.48515343,19.40689 L8.48515343,20.376983 L13.427519,20.376983 L13.427519,19.40689 Z M13.427519,21.6351696 L13.427519,21.4342836 L8.48515343,21.4342836 L8.48515343,21.6351696 C8.54335982,22.0924699 8.91377389,22.4334338 9.37151551,22.4334338 L12.5438533,22.4334338 C12.9988986,22.4334338 13.3719731,22.0924699 13.427519,21.6351696 Z M16.6845239,10.9008593 C16.6845239,7.73157968 14.1128012,5.16230025 10.9404274,5.16230025 C7.76805365,5.16230025 5.19636688,7.73157968 5.19636688,10.9008593 C5.19636688,11.9291026 5.48211385,12.9282529 5.9954014,13.8137605 C5.9954014,13.8137605 5.9954014,13.8137605 5.9954014,13.8428177 C6.22294199,14.2128746 6.48222824,14.5564964 6.76797521,14.871061 C6.79709638,14.9001541 6.79709638,14.9001541 6.8261816,14.9292113 C7.76808961,16.2719833 8.31312283,17.4138693 8.45599631,18.3549052 L13.4566402,18.3549052 C13.6286348,17.1839261 14.4276694,15.843812 15.1420368,14.8446258 C15.1420368,14.8155327 15.171158,14.8155327 15.2002432,14.7864755 C15.4569049,14.5300612 15.68707,14.2155325 15.8564042,13.9009679 C15.8564042,13.8718748 15.8855254,13.8718748 15.8855254,13.8428177 C15.8855254,13.8137246 15.9146465,13.8137605 15.9146465,13.7846674 C16.4278981,12.9282529 16.6845239,11.9291026 16.6845239,10.9008593 Z M3.22788376,5.9050721 L2.16956299,5.27597883 C1.91290123,5.13324308 1.59806905,5.21782856 1.45519556,5.47686485 C1.31232208,5.73327917 1.39698918,6.04780785 1.65627543,6.1905436 L2.71459621,6.81963688 C2.79926331,6.87778715 2.88659086,6.87778715 2.97125796,6.87778715 C3.14325262,6.87778715 3.34167203,6.79320167 3.42899958,6.62137282 C3.56921262,6.36237245 3.48454552,6.04780785 3.22788376,5.9050721 Z" id="Shape"></path>
                    </g>
                </g>
            </g>
        </g>
    </g>
</svg>