<?xml version="1.0" encoding="UTF-8"?>
<svg width="33px" height="55px" viewBox="0 0 33 55" version="1.1" xmlns="http://www.w3.org/2000/svg" xmlns:xlink="http://www.w3.org/1999/xlink">
    <!-- Generator: Sketch 48.1 (47250) - http://www.bohemiancoding.com/sketch -->
    <title>settings</title>
    <desc>Created with Sketch.</desc>
    <defs></defs>
    <g id="9.5-My-Network-(Send3)" stroke="none" stroke-width="1" fill="none" fill-rule="evenodd" transform="translate(-328.000000, -815.000000)">
        <g id="Bottom-Nav" transform="translate(-14.000000, 797.000000)" fill="#9090A1">
            <g id="settings" transform="translate(340.000000, 19.000000)">
                <path d="M32.4132371,12.2458742 L30.2373569,11.8767495 C30.0107027,11.144976 29.7192902,10.4391059 29.3631194,9.76561521 L30.6453345,7.97179862 C31.1893045,7.20764571 31.1051187,6.16503029 30.4381078,5.50449133 L28.5083093,3.57468143 C28.1456626,3.21203259 27.6664509,3.01128055 27.15486,3.01128055 C26.7533583,3.01128055 26.3712842,3.13432212 26.0474925,3.36745352 L24.2472107,4.64967621 C23.5478206,4.28055149 22.8160514,3.9761855 22.0583788,3.74952998 L21.6957322,1.59954042 C21.5403121,0.673490704 20.7437846,0 19.8047887,0 L17.0784627,0 C16.1394668,0 15.3429392,0.673490704 15.1875192,1.59954042 L14.8119208,3.80133695 C14.0866274,4.02799248 13.3807616,4.3258826 12.7072749,4.68853144 L10.9264206,3.40630875 C10.6026289,3.17317736 10.2140788,3.05013578 9.81257715,3.05013578 C9.30098628,3.05013578 8.81529874,3.25088782 8.45912789,3.61353666 L6.52285358,5.54334656 C5.86231854,6.20388552 5.77165686,7.24650094 6.3156269,8.01065385 L7.61079366,9.83037393 C7.2546228,10.5103405 6.96968611,11.2162106 6.74950776,11.9479841 L4.59953095,12.310633 C3.67348671,12.4660539 3,13.2625862 3,14.2015876 L3,16.9279298 C3,17.8669313 3.67348671,18.6634635 4.59953095,18.8188845 L6.80131444,19.1944851 C7.02796862,19.9197827 7.32585697,20.6256528 7.68850366,21.2991435 L6.41276441,23.0735325 C5.86879437,23.8376854 5.95298021,24.8803008 6.61999109,25.5408398 L8.54978956,27.4706497 C8.91243625,27.8332985 9.39164795,28.0340506 9.90323882,28.0340506 C10.3047405,28.0340506 10.6868147,27.911009 11.0106064,27.6778776 L12.8303157,26.3827032 C13.4843749,26.7259244 14.1708133,27.0043869 14.8766792,27.2245665 L15.2393259,29.4004596 C15.3947459,30.3265093 16.1912734,31 17.1302693,31 L19.8630712,31 C20.8020671,31 21.5985946,30.3265093 21.7540147,29.4004596 L22.1231372,27.2245665 C22.8549064,26.997911 23.5607723,26.7064968 24.234259,26.3503238 L26.028065,27.6325465 C26.3518566,27.8656779 26.7404067,27.9887194 27.1419084,27.9887194 C27.6534992,27.9887194 28.1327109,27.7879674 28.4953576,27.4253186 L30.4251561,25.4955087 C31.0856911,24.8349697 31.1763528,23.7923543 30.6323828,23.0282014 L29.3501677,21.2279089 C29.7063386,20.5479423 30.0042269,19.8420723 30.2244053,19.1167746 L32.4002854,18.7541258 C33.3263296,18.5987048 33.9998164,17.8021726 33.9998164,16.8631711 L33.9998164,14.1368289 C34.012768,13.1978274 33.3392813,12.4012952 32.4132371,12.2458742 Z M32.2642929,16.8631711 C32.2642929,16.9473574 32.2060104,17.018592 32.1218246,17.0315438 L29.4019744,17.4848548 C29.0587552,17.5431377 28.7867702,17.7956967 28.7025843,18.1259662 C28.4565026,19.0779194 28.0809043,19.9910173 27.5757892,20.8393566 C27.4009417,21.1372467 27.4138934,21.5063714 27.6146442,21.7913098 L29.2141752,24.0449133 C29.259506,24.109672 29.2530302,24.2068101 29.1947477,24.265093 L27.2649492,26.1949029 C27.2196184,26.240234 27.1742875,26.2467098 27.1419084,26.2467098 C27.1030534,26.2467098 27.0706742,26.2337581 27.0447709,26.2143305 L24.7976565,24.6147901 C24.5191957,24.414038 24.1435973,24.4010863 23.845709,24.5759348 C22.9973747,25.0810529 22.0842822,25.4566534 21.1323346,25.7027366 C20.7955913,25.7869229 20.5430337,26.0653854 20.4912271,26.4021308 L20.0314429,29.1219971 C20.0184912,29.2061834 19.947257,29.2644663 19.8630712,29.2644663 L17.1367452,29.2644663 C17.0525593,29.2644663 16.9813252,29.2061834 16.9683735,29.1219971 L16.5150651,26.4021308 C16.4567826,26.0589095 16.2042251,25.7869229 15.8739576,25.7027366 C14.9479133,25.4631293 14.0542483,25.0940046 13.2188657,24.6147901 C13.0828732,24.5370796 12.9274532,24.4982244 12.778509,24.4982244 C12.6036615,24.4982244 12.4223382,24.5500313 12.273394,24.6601212 L10.0068522,26.2726133 C9.97447299,26.2920409 9.94209382,26.3049927 9.90971465,26.3049927 C9.88381132,26.3049927 9.83200465,26.2985168 9.78667381,26.2531857 L7.85687534,24.3233758 C7.79859284,24.265093 7.79211701,24.1744307 7.83744784,24.1031962 L9.43050295,21.8690203 C9.6312538,21.5840819 9.64420547,21.2084813 9.46935796,20.9105912 C8.96424292,20.0687278 8.57569289,19.1556298 8.32961121,18.2036766 C8.23894954,17.8734071 7.96696452,17.6208481 7.63022116,17.5625653 L4.89094347,17.0963025 C4.80675763,17.0833507 4.74847512,17.0121161 4.74847512,16.9279298 L4.74847512,14.2015876 C4.74847512,14.1174013 4.80675763,14.0461667 4.89094347,14.033215 L7.59136616,13.5799039 C7.93458535,13.5216211 8.2130462,13.269062 8.29723204,12.9323167 C8.53683789,11.9803635 8.90596042,11.0607896 9.40459962,10.2124504 C9.57944713,9.91456027 9.56001963,9.54543555 9.35926878,9.26697305 L7.74678617,7.0004178 C7.70145533,6.93565908 7.70793117,6.83852099 7.76621367,6.78023814 L9.69601214,4.85042824 C9.74134298,4.80509714 9.78667381,4.79862127 9.81905298,4.79862127 C9.85790798,4.79862127 9.89028715,4.81157301 9.91619049,4.83100063 L12.1503531,6.42406518 C12.4352898,6.62481721 12.8108882,6.63776896 13.1087765,6.46292041 C13.9506349,5.95780238 14.8637275,5.56925005 15.8156751,5.32316691 C16.1459426,5.2325047 16.3985001,4.96051807 16.4567826,4.62377272 L16.9230426,1.8844788 C16.9359943,1.80029246 17.0072285,1.74200961 17.0914143,1.74200961 L19.8177404,1.74200961 C19.9019262,1.74200961 19.9731604,1.80029246 19.986112,1.8844788 L20.4394204,4.58491748 C20.4977029,4.92813871 20.7502604,5.20660121 21.0870038,5.29078755 C22.0648547,5.53687069 22.9973747,5.91894715 23.8651365,6.43054105 C24.1630248,6.6053896 24.5321474,6.59243785 24.817084,6.39168582 L27.0512467,4.78566952 C27.0836259,4.76624191 27.116005,4.75329016 27.1483842,4.75329016 C27.1742875,4.75329016 27.2260942,4.75976603 27.271425,4.80509714 L29.2012235,6.73490704 C29.259506,6.79318989 29.2659819,6.8838521 29.220651,6.95508669 L27.6211201,9.20221433 C27.4203692,9.48067683 27.4074176,9.85627742 27.5822651,10.1541675 C28.0873801,11.0025068 28.4629785,11.9156048 28.7090601,12.867558 C28.793246,13.2043033 29.0717068,13.4568623 29.4084502,13.5086693 L32.1283004,13.9684562 C32.2124862,13.981408 32.2707687,14.0526426 32.2707687,14.1368289 L32.2707687,16.8631711 L32.2642929,16.8631711 Z" id="Shape" stroke="#000228" stroke-width="0.5" fill-rule="nonzero"></path>
                <path d="M18.5,9 C14.9133591,9 12,11.9133591 12,15.5 C12,19.0866409 14.9133591,22 18.5,22 C22.0866409,22 25,19.0866409 25,15.5 C25,11.9133591 22.0866409,9 18.5,9 Z M18.5,20.3010649 C15.8509197,20.3010649 13.6989351,18.1490803 13.6989351,15.5 C13.6989351,12.8509197 15.8509197,10.6989351 18.5,10.6989351 C21.1490803,10.6989351 23.3010649,12.8509197 23.3010649,15.5 C23.3010649,18.1490803 21.1490803,20.3010649 18.5,20.3010649 Z" id="Shape" stroke="#000228" stroke-width="0.5" fill-rule="nonzero"></path>
                <text id="Settings" font-family=".AppleSystemUIFont" font-size="9" font-weight="normal" line-spacing="10">
                    <tspan x="0" y="45">Setting</tspan>
                    <tspan x="13.3286133" y="55">s</tspan>
                </text>
            </g>
        </g>
    </g>
</svg>