<?xml version="1.0" encoding="UTF-8"?>
<svg width="34px" height="45px" viewBox="0 0 34 45" version="1.1" xmlns="http://www.w3.org/2000/svg" xmlns:xlink="http://www.w3.org/1999/xlink">
    <!-- Generator: Sketch 48.1 (47250) - http://www.bohemiancoding.com/sketch -->
    <title>Friends</title>
    <desc>Created with Sketch.</desc>
    <defs></defs>
    <g id="10.-Notification" stroke="none" stroke-width="1" fill="none" fill-rule="evenodd" transform="translate(-83.000000, -674.000000)">
        <g id="Bottom-Nav" transform="translate(-14.000000, 655.000000)" fill="#9090A1">
            <g id="Friends" transform="translate(97.000000, 19.000000)">
                <path d="M31.4596333,24.5078182 L25.9216,22.1527309 C25.7912667,22.0887491 25.6467667,21.9324109 25.5226667,21.7237745 L29.2201667,21.7209927 C29.2847667,21.7271127 30.8091,21.8639782 32.0314,21.3482291 C32.4943667,21.1523891 32.8389,20.7657164 32.9771667,20.2872436 C33.1165667,19.80432 33.0281667,19.2930218 32.7357667,18.8835382 C31.6789333,17.4069491 29.2122333,13.5485673 29.1351667,9.63510545 C29.1334667,9.56778545 28.9102,2.91256364 22.2161667,2.85859636 C21.2307333,2.86638545 20.3195333,3.03051273 19.4905,3.33317455 C19.3097333,2.88085091 19.0434,2.40905455 18.6473,1.96507636 C17.4839333,0.66096 15.5952333,0 13.0333333,0 C10.4714333,0 8.58273333,0.66096 7.4188,1.96396364 C6.07693333,3.46670182 6.2016,5.28879273 6.23333333,5.59423636 L6.23333333,8.55353455 C5.87066667,8.95912364 5.66666667,9.47821091 5.66666667,10.0139891 L5.66666667,12.2394436 C5.66666667,12.9165382 5.98003333,13.5480109 6.51496667,13.9691782 C7.03403333,15.9871091 8.12033333,17.5076509 8.5,17.9955818 L8.5,19.8365891 C8.5,20.3751491 8.2008,20.8692 7.7197,21.1273527 L2.66446667,23.8346182 C1.02056667,24.7158982 0,26.4039055 0,28.2421309 L0,30.6 L24.9333333,30.6 L26.0666667,30.6 L34,30.6 L34,28.5431236 C34,26.8228473 33.0264667,25.2772691 31.4596333,24.5078182 Z M24.9333333,29.4872727 L1.13333333,29.4872727 L1.13333333,28.2421309 C1.13333333,26.81172 1.9278,25.4970327 3.20676667,24.8127055 L8.262,22.10544 C9.10803333,21.6520036 9.63333333,20.7824073 9.63333333,19.8371455 L9.63333333,17.60112 L9.5013,17.4464509 C9.4877,17.4303164 8.0988,15.7806982 7.56896667,13.5157418 L7.5174,13.2954218 L7.32416667,13.1730218 C6.99606667,12.9649418 6.8,12.6161018 6.8,12.24 L6.8,10.0145455 C6.8,9.70242545 6.93486667,9.41144727 7.17966667,9.19390909 L7.36666667,9.02866909 L7.36666667,5.56363636 L7.36156667,5.49075273 C7.35986667,5.47573091 7.1672,3.93349091 8.27106667,2.69725091 C9.21003333,1.64572364 10.8125667,1.11272727 13.0333333,1.11272727 C15.2461667,1.11272727 16.8453,1.64182909 17.7854,2.68612364 C18.2529,3.20465455 18.4880667,3.78382909 18.6053667,4.28121818 C18.6144333,4.32016364 18.6229333,4.35855273 18.6308667,4.39694182 C18.6388,4.43644364 18.6473,4.47594545 18.6535333,4.51377818 C18.6609,4.55717455 18.6671333,4.59834545 18.6733667,4.63951636 C18.6779,4.66900364 18.6824333,4.69904727 18.6858333,4.72742182 C18.6943333,4.79641091 18.7011333,4.86317455 18.7056667,4.92493091 C18.7062333,4.92993818 18.7062333,4.93438909 18.7062333,4.93939636 C18.7102,4.99948364 18.7130333,5.05623273 18.7147333,5.10797455 C18.7147333,5.11798909 18.7147333,5.12633455 18.7153,5.13634909 C18.7164333,5.18252727 18.7164333,5.22648 18.7158667,5.26486909 C18.7158667,5.27043273 18.7158667,5.27599636 18.7158667,5.28156 C18.7136,5.41230545 18.7045333,5.49019636 18.7045333,5.49186545 L18.7,9.02866909 L18.887,9.19446545 C19.1318,9.41144727 19.2666667,9.70242545 19.2666667,10.0145455 L19.2666667,12.24 C19.2666667,12.7257055 18.9425333,13.1507673 18.4608667,13.2965345 L18.1786667,13.3816582 L18.088,13.6570582 C17.7089,14.8148509 17.1688667,15.8841818 16.4820667,16.8355636 C16.3137667,17.0697927 16.15,17.2773164 16.0077667,17.43588 L15.8666667,17.5938873 L15.8666667,19.8888873 C15.8666667,20.0296473 15.8808333,20.1676255 15.9029333,20.3033782 C15.9074667,20.3323091 15.9154,20.3601273 15.9210667,20.3890582 C15.9431667,20.5008873 15.9726333,20.6104909 16.0089,20.7173127 C16.0174,20.7423491 16.0264667,20.7662727 16.0361,20.7913091 C16.0803,20.9075891 16.1318667,21.0199745 16.1919333,21.1279091 C16.1987333,21.1401491 16.2049667,21.1529455 16.2117667,21.1651855 C16.2939333,21.3076145 16.3885667,21.4428109 16.4973667,21.5674364 L16.6265667,21.7237745 L16.6486667,21.7237745 C16.8430333,21.9118255 17.0663,22.0753964 17.3201667,22.2000218 L22.7335333,24.8572145 C24.0907,25.5226255 24.9333333,26.8612364 24.9333333,28.3506218 L24.9333333,29.4872727 Z M32.8666667,29.4872727 L26.0666667,29.4872727 L26.0666667,28.3506218 C26.0666667,26.4372873 24.9837667,24.7175673 23.2412667,23.86188 L19.3550667,21.9535527 C19.4508333,21.7387964 19.4633,21.4928836 19.3794333,21.2558727 C19.2406,20.8636364 18.8779333,20.6104909 18.4557667,20.6104909 L17.1994667,20.6104909 C17.1734,20.5654255 17.1564,20.5159091 17.1354333,20.4680618 C17.1071,20.40408 17.0736667,20.3412109 17.0549667,20.2738909 C17.0204,20.1503782 17,20.0213018 17,19.8888873 L17,18.0078218 C17.1297667,17.85204 17.2663333,17.67456 17.4074333,17.47872 C18.1095333,16.5050836 18.6722333,15.4212873 19.0813667,14.2523673 C19.8809333,13.8924 20.4,13.1162727 20.4,12.24 L20.4,10.0145455 C20.4,9.47876727 20.196,8.95968 19.8333333,8.55409091 L19.8333333,5.59479273 C19.8480667,5.45570182 19.8798,5.00004 19.7857333,4.40473091 C20.5156,4.12321091 21.3333,3.978 22.2167333,3.97076727 C27.7933,4.01583273 27.9967333,9.42925091 28.0024,9.65736 C28.0857,13.8762655 30.6918,17.9622 31.8087,19.5228 C31.9044667,19.6563273 31.9333667,19.8243491 31.8874667,19.9829127 C31.8614,20.0741564 31.7866,20.2399527 31.5843,20.3250764 C30.6323,20.7273273 29.3408667,20.6132727 29.2745667,20.6104909 L25.3742,20.6104909 C25.0098333,20.6104909 24.6777667,20.7924218 24.4856667,21.0967527 C24.2941333,21.3999709 24.276,21.7705091 24.4369333,22.0887491 C24.6143,22.4398145 24.9276667,22.9088291 25.4427667,23.1608618 L30.9660667,25.5098291 C32.1385,26.0912291 32.8666667,27.2518036 32.8666667,28.5431236 L32.8666667,29.4872727 Z" id="Shape" fill-rule="nonzero"></path>
                <text font-family=".AppleSystemUIFont" font-size="9" font-weight="normal" line-spacing="10">
                    <tspan x="1" y="45">Friends</tspan>
                </text>
            </g>
        </g>
    </g>
</svg>