<?xml version="1.0" encoding="UTF-8"?>
<svg width="31px" height="31px" viewBox="0 0 31 31" version="1.1" xmlns="http://www.w3.org/2000/svg" xmlns:xlink="http://www.w3.org/1999/xlink">
    <!-- Generator: Sketch 48.1 (47250) - http://www.bohemiancoding.com/sketch -->
    <title>Snapchat</title>
    <desc>Created with Sketch.</desc>
    <defs>
        <ellipse id="path-1" cx="9.42653183" cy="9.80934959" rx="9.42653183" ry="9.66219512"></ellipse>
        <filter x="-47.7%" y="-46.6%" width="195.5%" height="193.1%" filterUnits="objectBoundingBox" id="filter-2">
            <feOffset dx="0" dy="0" in="SourceAlpha" result="shadowOffsetOuter1"></feOffset>
            <feGaussianBlur stdDeviation="3" in="shadowOffsetOuter1" result="shadowBlurOuter1"></feGaussianBlur>
            <feColorMatrix values="0 0 0 0 0   0 0 0 0 0   0 0 0 0 0  0 0 0 0.141247736 0" type="matrix" in="shadowBlurOuter1"></feColorMatrix>
        </filter>
    </defs>
    <g id="9.2-My-Network-Copy" stroke="none" stroke-width="1" fill="none" fill-rule="evenodd" transform="translate(-134.000000, -364.000000)">
        <g id="Most-Recent" transform="translate(14.000000, 218.000000)">
            <g id="User-1-Copy-2" transform="translate(0.000000, 137.000000)">
                <g id="Social-medial" transform="translate(59.000000, 15.000000)">
                    <g id="Snapchat" transform="translate(67.000000, 0.000000)">
                        <g id="Oval-6">
                            <use fill="black" fill-opacity="1" filter="url(#filter-2)" xlink:href="#path-1"></use>
                            <use fill="#FFFFFF" fill-rule="evenodd" xlink:href="#path-1"></use>
                        </g>
                        <path d="M9.75841592,15.3958928 C9.73930055,15.3958928 9.70104741,15.3958928 9.68193205,15.3958928 C9.66281668,15.3958928 9.64367891,15.3958928 9.62456354,15.3958928 C8.87877297,15.3958928 8.51544657,15.1764134 8.11386703,14.8771339 C7.84613987,14.677622 7.59755048,14.4980543 7.32982331,14.4581425 C7.17683316,14.4182308 7.04298079,14.3982866 6.88999063,14.3982866 C6.64140125,14.3982866 6.45015795,14.4381984 6.29719021,14.4780867 C6.20156857,14.4980309 6.10596933,14.5179985 6.02946305,14.5179985 C5.79998903,14.5179985 5.70436738,14.3583749 5.68525201,14.2586307 C5.66613665,14.158863 5.64699887,14.0591188 5.62788351,13.9792953 C5.60876814,13.9194394 5.58963037,13.7997276 5.570515,13.7398717 C4.67173428,13.5802482 4.1745555,13.3807363 4.05981849,13.0615126 C4.04068071,13.0216009 4.02156535,12.9817125 4.02156535,12.9218566 C4.02156535,12.7622331 4.11718699,12.6225771 4.27015474,12.5826653 C5.78085125,12.3232976 6.45015795,10.7071882 6.48841109,10.6473322 C6.56489496,10.4877087 6.58403274,10.3480527 6.5457796,10.2682527 C6.46929573,10.0886849 6.14420006,9.96897313 5.95297918,9.90911723 C5.87649531,9.88917305 5.8191268,9.8692055 5.78087366,9.84926132 C5.2071886,9.60983771 5.13070473,9.33050236 5.16893546,9.13099048 C5.22630397,8.77185505 5.74262052,8.59228734 6.01034768,8.71199915 C6.20156857,8.81176678 6.35455872,8.85165513 6.50754887,8.85165513 C6.56491737,8.85165513 6.62228588,8.83171096 6.66053902,8.83171096 C6.66053902,8.75191088 6.66053902,8.67208742 6.64142366,8.59228734 C6.58405515,7.77424886 6.52668664,6.75669849 6.79441381,6.15813945 C7.55931975,4.36246233 9.18477568,4.22280635 9.66283909,4.22280635 L9.89231312,4.22280635 C10.3703765,4.22280635 11.9958325,4.36246233 12.7798538,6.15813945 C13.0475809,6.75669849 12.9710746,7.77424886 12.9328439,8.59228734 L12.9328439,8.63219907 C12.9328439,8.71199915 12.9328439,8.77185505 12.9137286,8.83171096 C12.9519817,8.85165513 12.9902124,8.85165513 13.0284656,8.85165513 C13.1432026,8.85165513 13.2961927,8.79179923 13.4874136,8.71199915 C13.5830353,8.67208742 13.6786345,8.65214324 13.736003,8.65214324 C13.8316246,8.65214324 13.9272239,8.67208742 14.0037302,8.71199915 C14.2332042,8.79179923 14.3861943,8.99133449 14.3861943,9.19084638 C14.3861943,9.45021417 14.1758357,9.66969361 13.7742561,9.84926132 C13.736003,9.8692055 13.6786345,9.88917305 13.621266,9.90911723 C13.4109073,9.96897313 13.0858341,10.0886849 13.0093278,10.2682527 C12.9710746,10.3680203 12.9902124,10.4877321 13.0666963,10.6473322 L13.0666963,10.6672764 C13.1431802,10.8468441 13.7933715,12.3631859 15.2466995,12.6225771 C15.3996897,12.6425213 15.5144267,12.8021448 15.5144267,12.9617683 C15.5144267,13.0016801 15.4953113,13.061536 15.4761735,13.1014243 C15.3423212,13.4007038 14.9024885,13.6201833 14.0037078,13.7598393 C13.9845924,13.8196952 13.9654546,13.939407 13.9463392,13.9793187 C13.9272239,14.0790863 13.9080861,14.1588864 13.8889707,14.258654 C13.8507176,14.4182776 13.7168652,14.5180218 13.5638751,14.5180218 C13.4873912,14.5180218 13.3917696,14.4980777 13.2770325,14.4781101 C13.104927,14.4381984 12.9137061,14.4182542 12.6842321,14.4182542 C12.5503797,14.4182542 12.3973896,14.4381984 12.2635372,14.4581659 C11.9958101,14.4980777 11.7472207,14.6975895 11.4794935,14.8771573 C10.9822699,15.2163251 10.4085848,15.3958928 9.75841592,15.3958928 Z" id="Path" fill="#FFEC00"></path>
                    </g>
                </g>
            </g>
        </g>
    </g>
</svg>