<?xml version="1.0" encoding="UTF-8"?>
<svg width="28px" height="26px" viewBox="0 0 28 26" version="1.1" xmlns="http://www.w3.org/2000/svg" xmlns:xlink="http://www.w3.org/1999/xlink">
    <!-- Generator: Sketch 48.2 (47327) - http://www.bohemiancoding.com/sketch -->
    <title>Path</title>
    <desc>Created with Sketch.</desc>
    <defs></defs>
    <g id="10.3-Congrats" stroke="none" stroke-width="1" fill="none" fill-rule="evenodd" transform="translate(-238.000000, -532.000000)">
        <g id="Group-2" transform="translate(15.000000, 37.000000)" fill="#FFFFFF" stroke="#1E2634">
            <g id="Super-Connect" transform="translate(74.000000, 484.000000)">
                <path d="M162.947898,36 C162.90524,36 162.819874,36 162.777216,36 C162.734558,36 162.691849,36 162.649191,36 C160.984877,36 160.174074,35.5221534 159.277904,34.8705676 C158.680442,34.436194 158.125687,34.0452425 157.528224,33.9583474 C157.186809,33.8714524 156.888103,33.8280303 156.546688,33.8280303 C155.991934,33.8280303 155.565153,33.9149254 155.223788,34.0017695 C155.010398,34.0451916 154.797058,34.0886646 154.626326,34.0886646 C154.114229,34.0886646 153.900838,33.7411352 153.85818,33.5239739 C153.815522,33.3067616 153.772814,33.0896003 153.730156,32.9158101 C153.687498,32.7854929 153.64479,32.5248586 153.602132,32.3945415 C151.596403,32.047012 150.486893,31.6126385 150.230845,30.9176305 C150.188137,30.8307355 150.145479,30.7438913 150.145479,30.6135741 C150.145479,30.2660447 150.358869,29.9619883 150.700234,29.8750932 C154.071521,29.3104025 155.565153,25.791839 155.650519,25.6615218 C155.821201,25.3139924 155.863909,25.009936 155.778543,24.8361968 C155.607861,24.4452453 154.882374,24.1846109 154.455643,24.0542938 C154.284961,24.0108717 154.156937,23.9673987 154.071571,23.9239766 C152.791329,23.4027079 152.620647,22.7945442 152.705963,22.3601706 C152.833987,21.5782676 153.986205,21.1873161 154.583667,21.4479504 C155.010398,21.6651627 155.351813,21.7520069 155.693227,21.7520069 C155.821251,21.7520069 155.949275,21.7085848 156.034642,21.7085848 C156.034642,21.5348455 156.034642,21.3610554 155.991984,21.1873161 C155.863959,19.4062979 155.735935,17.1909061 156.333398,15.8877344 C158.040371,11.9782194 161.667756,11.674163 162.734608,11.674163 L163.246704,11.674163 C164.313556,11.674163 167.940941,11.9782194 169.690572,15.8877344 C170.288035,17.1909061 170.117302,19.4062979 170.031986,21.1873161 L170.031986,21.2742112 C170.031986,21.4479504 170.031986,21.5782676 169.989328,21.7085848 C170.074694,21.7520069 170.160011,21.7520069 170.245377,21.7520069 C170.501425,21.7520069 170.84284,21.6216897 171.26957,21.4479504 C171.48296,21.3610554 171.696301,21.3176333 171.824325,21.3176333 C172.037715,21.3176333 172.251056,21.3610554 172.421788,21.4479504 C172.933885,21.6216897 173.275299,22.0561142 173.275299,22.4904878 C173.275299,23.0551785 172.80586,23.5330251 171.909691,23.9239766 C171.824325,23.9673987 171.696301,24.0108717 171.568277,24.0542938 C171.098838,24.1846109 170.373401,24.4452453 170.202669,24.8361968 C170.117302,25.053409 170.160011,25.3140433 170.330693,25.6615218 L170.330693,25.7049439 C170.501375,26.0958954 171.952349,29.3972466 175.195612,29.9619883 C175.537026,30.0054104 175.793075,30.3529398 175.793075,30.7004692 C175.793075,30.7873643 175.750417,30.9176814 175.707709,31.0045256 C175.409002,31.6561114 174.427467,32.133958 172.421738,32.4380144 C172.37908,32.5683316 172.336372,32.8289659 172.293714,32.915861 C172.251056,33.1330733 172.208348,33.3068125 172.165689,33.5240248 C172.080323,33.8715542 171.781617,34.0887155 171.440202,34.0887155 C171.26952,34.0887155 171.05613,34.0452934 170.800081,34.0018204 C170.416009,33.9149254 169.989278,33.8715033 169.477182,33.8715033 C169.178475,33.8715033 168.837061,33.9149254 168.538354,33.9583983 C167.940891,34.0452934 167.386136,34.479667 166.788674,34.8706185 C165.679064,35.6090485 164.398822,36 162.947898,36 Z" id="Path"></path>
            </g>
        </g>
    </g>
</svg>