<?xml version="1.0" encoding="UTF-8"?>
<svg width="38px" height="38px" viewBox="0 0 38 38" version="1.1" xmlns="http://www.w3.org/2000/svg" xmlns:xlink="http://www.w3.org/1999/xlink">
    <!-- Generator: Sketch 48.1 (47250) - http://www.bohemiancoding.com/sketch -->
    <title>Text sms</title>
    <desc>Created with Sketch.</desc>
    <defs>
        <linearGradient x1="50%" y1="1.44328993e-13%" x2="50%" y2="100%" id="linearGradient-1">
            <stop stop-color="#00EA66" offset="0%"></stop>
            <stop stop-color="#00D50F" offset="100%"></stop>
        </linearGradient>
    </defs>
    <g id="9.2-My-Network-Copy" stroke="none" stroke-width="1" fill="none" fill-rule="evenodd" transform="translate(-214.000000, -295.000000)">
        <g id="Most-Recent" transform="translate(14.000000, 218.000000)" fill-rule="nonzero">
            <g id="User-1-Copy" transform="translate(0.000000, 64.000000)">
                <g id="Options" transform="translate(200.000000, 13.000000)">
                    <g id="Text-sms">
                        <path d="M37.9602992,9.34407365 L37.9602992,29.2002301 C37.9602992,34.0381243 34.0381243,37.9602992 29.2002301,37.9602992 L9.34407365,37.9602992 C4.50617952,37.9602992 0.584004603,34.0381243 0.584004603,29.2002301 L0.584004603,9.34407365 C0.584004603,4.50617952 4.50617952,0.584004603 9.34407365,0.584004603 L29.2002301,0.584004603 C34.0381243,0.584004603 37.9602992,4.50617952 37.9602992,9.34407365 Z" id="Shape" fill="url(#linearGradient-1)"></path>
                        <g id="Group" transform="translate(9.117480, 10.297169)" fill="#FFFFFF">
                            <path d="M10.1616801,0.214913694 C8.11065593,0.214913694 6.21322497,0.745189873 4.6311565,1.65915708 C4.36309839,1.8139183 4.09971231,1.96926352 3.85151036,2.14504891 C3.61206847,2.31557825 3.39248274,2.50187572 3.17289701,2.69050921 C3.16472094,2.69693326 3.15187284,2.69810127 3.14369678,2.70510932 C1.34729862,4.24512946 0.226593786,6.36740219 0.226593786,8.7168527 C0.226593786,11.032431 1.32101841,13.1208314 3.07186421,14.6544275 C3.08004028,14.716916 3.08588032,14.7846605 3.08588032,14.8313809 C3.08588032,16.1874396 2.0428481,17.2923763 0.717741657,17.3069764 C1.38551055,17.5867682 2.10198544,17.7318494 2.82599827,17.7338838 C4.10496835,17.7338838 5.25720944,17.258504 6.1910328,16.5109781 C7.46095148,16.9871632 8.80600292,17.2316461 10.1622641,17.2328078 C15.6448993,17.2328078 20.0833343,13.4163377 20.0833343,8.7162687 C20.0833343,4.01619965 15.6443153,0.214913694 10.1616801,0.214913694 Z" id="Shape"></path>
                        </g>
                    </g>
                </g>
            </g>
        </g>
    </g>
</svg>