<?xml version="1.0" encoding="UTF-8"?>
<svg width="31px" height="31px" viewBox="0 0 31 31" version="1.1" xmlns="http://www.w3.org/2000/svg" xmlns:xlink="http://www.w3.org/1999/xlink">
    <!-- Generator: Sketch 48.1 (47250) - http://www.bohemiancoding.com/sketch -->
    <title>Twitter</title>
    <desc>Created with Sketch.</desc>
    <defs>
        <ellipse id="path-1" cx="9.42653183" cy="9.80934959" rx="9.42653183" ry="9.66219512"></ellipse>
        <filter x="-47.7%" y="-46.6%" width="195.5%" height="193.1%" filterUnits="objectBoundingBox" id="filter-2">
            <feOffset dx="0" dy="0" in="SourceAlpha" result="shadowOffsetOuter1"></feOffset>
            <feGaussianBlur stdDeviation="3" in="shadowOffsetOuter1" result="shadowBlurOuter1"></feGaussianBlur>
            <feColorMatrix values="0 0 0 0 0   0 0 0 0 0   0 0 0 0 0  0 0 0 0.141247736 0" type="matrix" in="shadowBlurOuter1"></feColorMatrix>
        </filter>
    </defs>
    <g id="9.2-My-Network-Copy" stroke="none" stroke-width="1" fill="none" fill-rule="evenodd" transform="translate(-115.000000, -246.000000)">
        <g id="Most-Recent" transform="translate(14.000000, 218.000000)">
            <g id="User-1">
                <g id="Social-medial" transform="translate(58.000000, 34.000000)">
                    <g id="Twitter" transform="translate(49.000000, 0.000000)">
                        <g id="Oval-6">
                            <use fill="black" fill-opacity="1" filter="url(#filter-2)" xlink:href="#path-1"></use>
                            <use fill="#FFFFFF" fill-rule="evenodd" xlink:href="#path-1"></use>
                        </g>
                        <path d="M11.3802523,5.51504065 C10.1862874,5.53370645 9.24557988,6.59794819 9.24557988,7.83022372 L9.24557988,8.1289597 C7.11090743,7.73687392 6.06166678,7.13940196 4.90387287,5.88846063 C4.21644281,7.27010415 4.97623499,8.42769568 5.80838929,9.06252003 C5.24757783,9.06252003 4.77723413,8.98783604 4.41542353,8.65176845 C4.37925254,8.63310265 4.34306142,8.65176845 4.36114691,8.68912084 C4.66868088,9.84671238 5.71792154,10.6869021 6.53199034,10.9296199 C5.79028366,10.9296199 5.30183432,11.0416355 4.77721399,10.7055679 C4.741043,10.6869021 4.70485187,10.7055679 4.72293737,10.7428995 C5.12091895,11.8818253 5.91690226,12.2365794 7.07469617,12.2365794 C6.49579921,12.6846834 5.71792154,13.1327874 4.25259366,13.170119 C4.19831704,13.170119 4.16214605,13.244803 4.21642267,13.2821346 C4.7591285,13.7489044 6.09783777,14.1036585 7.97923272,14.1036585 C11.0726982,14.1036585 13.5872667,11.2656875 13.5872667,7.75553972 L13.5872667,7.56884013 C14.0757161,7.38214053 14.3470589,6.93403656 14.4917832,6.48593259 C14.4917832,6.46726679 14.4736977,6.44860098 14.455592,6.44860098 L13.4244369,6.82202096 C13.4063514,6.82202096 13.3882659,6.78468936 13.4063514,6.76600277 C13.8405644,6.41124859 14.1661838,5.96314462 14.3109081,5.53370645 C14.3109081,5.53370645 14.2928226,5.51504065 14.2747169,5.51504065 C13.7862676,5.72042683 13.3159239,5.92579223 12.9541133,6.03782862 C12.8998367,6.05649442 12.8274746,6.05649442 12.7732181,6.01916282 C12.5380462,5.88846063 11.8325105,5.51504065 11.3802523,5.51504065" id="Shape" fill="#65BBF2" fill-rule="nonzero"></path>
                    </g>
                </g>
            </g>
        </g>
    </g>
</svg>